<svg xmlns="http://www.w3.org/2000/svg" xmlns:xlink="http://www.w3.org/1999/xlink" width="500" zoomAndPan="magnify" viewBox="0 0 375 374.999991" height="500" preserveAspectRatio="xMidYMid meet" version="1.0"><defs><g/><clipPath id="7c52e44d3f"><path d="M 122.046875 94 L 253 94 L 253 233.980469 L 122.046875 233.980469 Z M 122.046875 94 " clip-rule="nonzero"/></clipPath><clipPath id="e19433a12c"><path d="M 164 59.980469 L 211 59.980469 L 211 166 L 164 166 Z M 164 59.980469 " clip-rule="nonzero"/></clipPath></defs><g clip-path="url(#7c52e44d3f)"><path fill="#e61a5a" d="M 233.390625 94.867188 C 222.59375 94.867188 213.808594 103.652344 213.808594 114.449219 L 213.808594 163.226562 C 213.808594 177.734375 202.003906 189.539062 187.496094 189.539062 C 172.988281 189.539062 161.183594 177.734375 161.183594 163.226562 L 161.183594 114.449219 C 161.183594 103.652344 152.398438 94.867188 141.601562 94.867188 C 130.804688 94.867188 122.015625 103.652344 122.015625 114.449219 L 122.015625 168.394531 C 122.015625 204.5 151.390625 233.871094 187.492188 233.871094 C 223.59375 233.871094 252.96875 204.496094 252.96875 168.394531 L 252.96875 114.449219 C 252.96875 103.652344 244.183594 94.867188 233.390625 94.867188 Z M 244.402344 168.390625 C 244.402344 199.769531 218.875 225.300781 187.492188 225.300781 C 156.109375 225.300781 130.582031 199.773438 130.582031 168.390625 L 130.582031 114.449219 C 130.582031 108.375 135.523438 103.4375 141.59375 103.4375 C 147.664062 103.4375 152.609375 108.378906 152.609375 114.449219 L 152.609375 163.226562 C 152.609375 182.460938 168.253906 198.109375 187.488281 198.109375 C 206.722656 198.109375 222.367188 182.460938 222.367188 163.226562 L 222.367188 114.449219 C 222.367188 108.375 227.3125 103.4375 233.382812 103.4375 C 239.457031 103.4375 244.394531 108.378906 244.394531 114.449219 L 244.394531 168.390625 Z M 244.402344 168.390625 " fill-opacity="1" fill-rule="nonzero"/></g><g clip-path="url(#e19433a12c)"><path fill="#e61a5a" d="M 183.210938 104.851562 L 183.210938 161.328125 C 183.210938 163.691406 185.128906 165.609375 187.492188 165.609375 C 189.855469 165.609375 191.773438 163.691406 191.773438 161.328125 L 191.773438 104.851562 C 202.214844 102.84375 210.132812 93.648438 210.132812 82.632812 C 210.136719 70.144531 199.976562 59.988281 187.492188 59.988281 C 175.007812 59.988281 164.851562 70.144531 164.851562 82.628906 C 164.851562 93.648438 172.769531 102.839844 183.210938 104.851562 Z M 187.492188 68.558594 C 195.25 68.558594 201.566406 74.867188 201.566406 82.632812 C 201.566406 90.394531 195.25 96.707031 187.492188 96.707031 C 179.730469 96.707031 173.417969 90.394531 173.417969 82.632812 C 173.417969 74.867188 179.730469 68.558594 187.492188 68.558594 Z M 187.492188 68.558594 " fill-opacity="1" fill-rule="nonzero"/></g><g fill="#e61a5a" fill-opacity="1"><g transform="translate(121.498853, 287.615537)"><g><path d="M 21.953125 -16.890625 C 23.578125 -16.296875 24.90625 -15.332031 25.9375 -14 C 26.976562 -12.664062 27.5 -10.984375 27.5 -8.953125 C 27.5 -7.128906 27.070312 -5.539062 26.21875 -4.1875 C 25.375 -2.84375 24.238281 -1.804688 22.8125 -1.078125 C 21.382812 -0.359375 19.78125 0 18 0 L 3.671875 0 L 3.671875 -33.34375 L 16.78125 -33.34375 C 18.5625 -33.34375 20.171875 -32.96875 21.609375 -32.21875 C 23.054688 -31.476562 24.210938 -30.429688 25.078125 -29.078125 C 25.953125 -27.734375 26.390625 -26.132812 26.390625 -24.28125 C 26.390625 -22.5 25.988281 -20.988281 25.1875 -19.75 C 24.394531 -18.507812 23.316406 -17.554688 21.953125 -16.890625 Z M 20.953125 -23.734375 C 20.953125 -25.066406 20.476562 -26.15625 19.53125 -27 C 18.582031 -27.851562 17.460938 -28.28125 16.171875 -28.28125 L 9.0625 -28.28125 L 9.0625 -19.0625 L 16.171875 -19.0625 C 17.460938 -19.0625 18.582031 -19.515625 19.53125 -20.421875 C 20.476562 -21.328125 20.953125 -22.429688 20.953125 -23.734375 Z M 17.21875 -5.0625 C 18.550781 -5.0625 19.691406 -5.492188 20.640625 -6.359375 C 21.585938 -7.234375 22.0625 -8.316406 22.0625 -9.609375 C 22.0625 -10.910156 21.585938 -12.015625 20.640625 -12.921875 C 19.691406 -13.828125 18.550781 -14.28125 17.21875 -14.28125 L 9.0625 -14.28125 L 9.0625 -5.0625 Z M 17.21875 -5.0625 "/></g></g></g><g fill="#e61a5a" fill-opacity="1"><g transform="translate(150.228573, 287.615537)"><g><path d="M 27.890625 -4.328125 L 29.109375 -4.328125 L 29.109375 0 C 28.597656 0.289062 28.007812 0.4375 27.34375 0.4375 C 25.96875 0.4375 24.757812 0.0976562 23.71875 -0.578125 C 22.6875 -1.265625 21.894531 -2.164062 21.34375 -3.28125 C 20.414062 -2.132812 19.265625 -1.226562 17.890625 -0.5625 C 16.523438 0.101562 15.023438 0.4375 13.390625 0.4375 C 11.316406 0.4375 9.414062 -0.078125 7.6875 -1.109375 C 5.96875 -2.148438 4.609375 -3.539062 3.609375 -5.28125 C 2.609375 -7.019531 2.109375 -8.960938 2.109375 -11.109375 C 2.109375 -13.265625 2.609375 -15.210938 3.609375 -16.953125 C 4.609375 -18.691406 5.96875 -20.078125 7.6875 -21.109375 C 9.414062 -22.148438 11.316406 -22.671875 13.390625 -22.671875 C 14.796875 -22.671875 16.109375 -22.421875 17.328125 -21.921875 C 18.554688 -21.421875 19.632812 -20.742188 20.5625 -19.890625 L 20.5625 -22.21875 L 25.84375 -22.21875 L 25.84375 -6.828125 C 25.84375 -5.867188 26.050781 -5.210938 26.46875 -4.859375 C 26.894531 -4.503906 27.367188 -4.328125 27.890625 -4.328125 Z M 14.0625 -4.4375 C 15.28125 -4.4375 16.398438 -4.734375 17.421875 -5.328125 C 18.441406 -5.921875 19.242188 -6.726562 19.828125 -7.75 C 20.421875 -8.769531 20.71875 -9.890625 20.71875 -11.109375 C 20.71875 -12.367188 20.421875 -13.5 19.828125 -14.5 C 19.242188 -15.5 18.441406 -16.296875 17.421875 -16.890625 C 16.398438 -17.484375 15.28125 -17.78125 14.0625 -17.78125 C 12.832031 -17.78125 11.707031 -17.484375 10.6875 -16.890625 C 9.675781 -16.296875 8.875 -15.5 8.28125 -14.5 C 7.6875 -13.5 7.390625 -12.367188 7.390625 -11.109375 C 7.390625 -9.890625 7.6875 -8.769531 8.28125 -7.75 C 8.875 -6.726562 9.675781 -5.921875 10.6875 -5.328125 C 11.707031 -4.734375 12.832031 -4.4375 14.0625 -4.4375 Z M 14.0625 -4.4375 "/></g></g></g><g fill="#e61a5a" fill-opacity="1"><g transform="translate(179.236144, 287.615537)"><g><path d="M 20.5625 -39.5625 L 25.84375 -39.5625 L 25.84375 0 L 20.5625 0 L 20.5625 -2.328125 C 19.632812 -1.484375 18.554688 -0.8125 17.328125 -0.3125 C 16.109375 0.1875 14.796875 0.4375 13.390625 0.4375 C 11.316406 0.4375 9.414062 -0.078125 7.6875 -1.109375 C 5.96875 -2.148438 4.609375 -3.539062 3.609375 -5.28125 C 2.609375 -7.019531 2.109375 -8.960938 2.109375 -11.109375 C 2.109375 -13.265625 2.609375 -15.210938 3.609375 -16.953125 C 4.609375 -18.691406 5.96875 -20.078125 7.6875 -21.109375 C 9.414062 -22.148438 11.316406 -22.671875 13.390625 -22.671875 C 14.796875 -22.671875 16.109375 -22.421875 17.328125 -21.921875 C 18.554688 -21.421875 19.632812 -20.742188 20.5625 -19.890625 Z M 14.0625 -4.4375 C 15.28125 -4.4375 16.398438 -4.734375 17.421875 -5.328125 C 18.441406 -5.921875 19.242188 -6.726562 19.828125 -7.75 C 20.421875 -8.769531 20.71875 -9.890625 20.71875 -11.109375 C 20.71875 -12.367188 20.421875 -13.5 19.828125 -14.5 C 19.242188 -15.5 18.441406 -16.296875 17.421875 -16.890625 C 16.398438 -17.484375 15.28125 -17.78125 14.0625 -17.78125 C 12.832031 -17.78125 11.707031 -17.484375 10.6875 -16.890625 C 9.675781 -16.296875 8.875 -15.5 8.28125 -14.5 C 7.6875 -13.5 7.390625 -12.367188 7.390625 -11.109375 C 7.390625 -9.890625 7.6875 -8.769531 8.28125 -7.75 C 8.875 -6.726562 9.675781 -5.921875 10.6875 -5.328125 C 11.707031 -4.734375 12.832031 -4.4375 14.0625 -4.4375 Z M 14.0625 -4.4375 "/></g></g></g><g fill="#e61a5a" fill-opacity="1"><g transform="translate(207.854721, 287.615537)"><g><path d="M 16.671875 0.4375 C 14.148438 0.4375 11.898438 -0.0507812 9.921875 -1.03125 C 7.941406 -2.007812 6.375 -3.347656 5.21875 -5.046875 C 4.070312 -6.753906 3.5 -8.679688 3.5 -10.828125 L 3.5 -33.34375 L 8.953125 -33.34375 L 8.953125 -11.78125 C 8.953125 -9.738281 9.679688 -8.03125 11.140625 -6.65625 C 12.597656 -5.289062 14.441406 -4.609375 16.671875 -4.609375 C 18.890625 -4.609375 20.738281 -5.289062 22.21875 -6.65625 C 23.707031 -8.03125 24.453125 -9.738281 24.453125 -11.78125 L 24.453125 -33.34375 L 29.890625 -33.34375 L 29.890625 -10.828125 C 29.890625 -8.679688 29.316406 -6.753906 28.171875 -5.046875 C 27.023438 -3.347656 25.453125 -2.007812 23.453125 -1.03125 C 21.453125 -0.0507812 19.191406 0.4375 16.671875 0.4375 Z M 16.671875 0.4375 "/></g></g></g><g fill="#e61a5a" fill-opacity="1"><g transform="translate(240.363197, 287.615537)"><g><path d="M 6.5625 -26.171875 C 5.707031 -26.171875 4.960938 -26.484375 4.328125 -27.109375 C 3.703125 -27.742188 3.390625 -28.46875 3.390625 -29.28125 C 3.390625 -30.164062 3.703125 -30.914062 4.328125 -31.53125 C 4.960938 -32.144531 5.707031 -32.453125 6.5625 -32.453125 C 7.40625 -32.453125 8.140625 -32.144531 8.765625 -31.53125 C 9.398438 -30.914062 9.71875 -30.164062 9.71875 -29.28125 C 9.71875 -28.46875 9.398438 -27.742188 8.765625 -27.109375 C 8.140625 -26.484375 7.40625 -26.171875 6.5625 -26.171875 Z M 3.9375 0 L 3.9375 -22.21875 L 9.171875 -22.21875 L 9.171875 0 Z M 3.9375 0 "/></g></g></g><g fill="#e61a5a" fill-opacity="1"><g transform="translate(140.641531, 310.964025)"><g><path d="M 5.859375 0.140625 C 5.140625 0.140625 4.472656 0.00390625 3.859375 -0.265625 C 3.242188 -0.535156 2.695312 -0.90625 2.21875 -1.375 C 1.75 -1.84375 1.378906 -2.382812 1.109375 -3 C 0.847656 -3.625 0.71875 -4.289062 0.71875 -5 C 0.71875 -5.71875 0.847656 -6.382812 1.109375 -7 C 1.378906 -7.613281 1.75 -8.15625 2.21875 -8.625 C 2.695312 -9.101562 3.242188 -9.472656 3.859375 -9.734375 C 4.472656 -10.003906 5.140625 -10.140625 5.859375 -10.140625 C 6.835938 -10.140625 7.722656 -9.890625 8.515625 -9.390625 C 9.304688 -8.898438 9.921875 -8.253906 10.359375 -7.453125 L 8.953125 -6.703125 C 8.660156 -7.265625 8.238281 -7.707031 7.6875 -8.03125 C 7.144531 -8.351562 6.535156 -8.515625 5.859375 -8.515625 C 5.203125 -8.515625 4.601562 -8.359375 4.0625 -8.046875 C 3.53125 -7.742188 3.109375 -7.328125 2.796875 -6.796875 C 2.484375 -6.265625 2.328125 -5.664062 2.328125 -5 C 2.328125 -4.332031 2.484375 -3.734375 2.796875 -3.203125 C 3.109375 -2.679688 3.53125 -2.265625 4.0625 -1.953125 C 4.601562 -1.640625 5.203125 -1.484375 5.859375 -1.484375 C 6.535156 -1.484375 7.144531 -1.648438 7.6875 -1.984375 C 8.238281 -2.316406 8.660156 -2.753906 8.953125 -3.296875 L 10.359375 -2.546875 C 9.921875 -1.742188 9.304688 -1.09375 8.515625 -0.59375 C 7.722656 -0.101562 6.835938 0.140625 5.859375 0.140625 Z M 5.859375 0.140625 "/></g></g></g><g fill="#e61a5a" fill-opacity="1"><g transform="translate(153.078188, 310.964025)"><g><path d="M 7.515625 -10.015625 L 9.15625 -10.015625 L 9.15625 0 L 7.515625 0 L 7.515625 -4.25 L 2.734375 -4.25 L 2.734375 0 L 1.09375 0 L 1.09375 -10.015625 L 2.734375 -10.015625 L 2.734375 -5.765625 L 7.515625 -5.765625 Z M 7.515625 -10.015625 "/></g></g></g><g fill="#e61a5a" fill-opacity="1"><g transform="translate(164.931366, 310.964025)"><g><path d="M 7.171875 0 L 6.453125 -2.125 L 2.375 -2.125 L 1.65625 0 L -0.109375 0 L 3.5 -10.015625 L 5.328125 -10.015625 L 8.9375 0 Z M 2.859375 -3.546875 L 5.984375 -3.546875 L 4.421875 -8.21875 Z M 2.859375 -3.546875 "/></g></g></g><g fill="#e61a5a" fill-opacity="1"><g transform="translate(175.350826, 310.964025)"><g><path d="M 2.734375 -1.515625 L 6.25 -1.515625 L 6.25 0 L 1.09375 0 L 1.09375 -10.015625 L 2.734375 -10.015625 Z M 2.734375 -1.515625 "/></g></g></g><g fill="#e61a5a" fill-opacity="1"><g transform="translate(183.286285, 310.964025)"><g><path d="M 2.734375 -1.515625 L 6.25 -1.515625 L 6.25 0 L 1.09375 0 L 1.09375 -10.015625 L 2.734375 -10.015625 Z M 2.734375 -1.515625 "/></g></g></g><g fill="#e61a5a" fill-opacity="1"><g transform="translate(191.221742, 310.964025)"><g><path d="M 6.921875 -8.515625 L 2.8125 -8.515625 L 2.8125 -5.75 L 6.375 -5.75 L 6.375 -4.25 L 2.8125 -4.25 L 2.8125 -1.484375 L 6.921875 -1.484375 L 6.921875 0 L 1.1875 0 L 1.1875 -10.015625 L 6.921875 -10.015625 Z M 6.921875 -8.515625 "/></g></g></g><g fill="#e61a5a" fill-opacity="1"><g transform="translate(200.590917, 310.964025)"><g><path d="M 8.296875 -10.015625 L 9.90625 -10.015625 L 9.90625 0 L 8.265625 0 L 2.734375 -7.4375 L 2.734375 0 L 1.09375 0 L 1.09375 -10.015625 L 2.734375 -10.015625 L 8.296875 -2.578125 Z M 8.296875 -10.015625 "/></g></g></g><g fill="#e61a5a" fill-opacity="1"><g transform="translate(213.194297, 310.964025)"><g><path d="M 5.875 -5.40625 L 11.03125 -5.40625 L 11.03125 -5 C 11.03125 -4.289062 10.894531 -3.625 10.625 -3 C 10.351562 -2.382812 9.984375 -1.84375 9.515625 -1.375 C 9.046875 -0.90625 8.5 -0.535156 7.875 -0.265625 C 7.257812 0.00390625 6.597656 0.140625 5.890625 0.140625 C 5.179688 0.140625 4.515625 0.00390625 3.890625 -0.265625 C 3.265625 -0.535156 2.71875 -0.90625 2.25 -1.375 C 1.78125 -1.84375 1.410156 -2.382812 1.140625 -3 C 0.878906 -3.625 0.75 -4.289062 0.75 -5 C 0.75 -5.71875 0.878906 -6.382812 1.140625 -7 C 1.410156 -7.613281 1.78125 -8.15625 2.25 -8.625 C 2.71875 -9.101562 3.265625 -9.472656 3.890625 -9.734375 C 4.515625 -10.003906 5.179688 -10.140625 5.890625 -10.140625 C 6.859375 -10.140625 7.738281 -9.890625 8.53125 -9.390625 C 9.332031 -8.898438 9.953125 -8.253906 10.390625 -7.453125 L 8.984375 -6.703125 C 8.691406 -7.265625 8.269531 -7.707031 7.71875 -8.03125 C 7.175781 -8.351562 6.566406 -8.515625 5.890625 -8.515625 C 5.234375 -8.515625 4.632812 -8.359375 4.09375 -8.046875 C 3.550781 -7.742188 3.125 -7.328125 2.8125 -6.796875 C 2.507812 -6.265625 2.359375 -5.664062 2.359375 -5 C 2.359375 -4.332031 2.507812 -3.734375 2.8125 -3.203125 C 3.125 -2.679688 3.550781 -2.265625 4.09375 -1.953125 C 4.632812 -1.640625 5.234375 -1.484375 5.890625 -1.484375 C 6.710938 -1.484375 7.429688 -1.722656 8.046875 -2.203125 C 8.660156 -2.679688 9.070312 -3.289062 9.28125 -4.03125 L 5.875 -4.03125 Z M 5.875 -5.40625 "/></g></g></g><g fill="#e61a5a" fill-opacity="1"><g transform="translate(226.547876, 310.964025)"><g><path d="M 6.921875 -8.515625 L 2.8125 -8.515625 L 2.8125 -5.75 L 6.375 -5.75 L 6.375 -4.25 L 2.8125 -4.25 L 2.8125 -1.484375 L 6.921875 -1.484375 L 6.921875 0 L 1.1875 0 L 1.1875 -10.015625 L 6.921875 -10.015625 Z M 6.921875 -8.515625 "/></g></g></g></svg>