<svg xmlns="http://www.w3.org/2000/svg" xmlns:xlink="http://www.w3.org/1999/xlink" width="500" zoomAndPan="magnify" viewBox="0 0 375 374.999991" height="500" preserveAspectRatio="xMidYMid meet" version="1.0"><defs><g/><clipPath id="b3db975921"><path d="M 127.582031 78.222656 L 239.332031 78.222656 L 239.332031 210.222656 L 127.582031 210.222656 Z M 127.582031 78.222656 " clip-rule="nonzero"/></clipPath><clipPath id="d384efc22c"><path d="M 213.324219 87.761719 C 215.042969 88.410156 216.734375 89.121094 218.386719 89.914062 C 220.03125 90.707031 221.652344 91.570312 223.222656 92.496094 C 224.800781 93.421875 226.34375 94.417969 227.84375 95.457031 C 229.347656 96.5 230.816406 97.605469 232.253906 98.746094 C 232.890625 99.253906 232.964844 100.140625 232.433594 100.675781 C 231.546875 101.554688 230.679688 102.402344 229.847656 103.207031 C 229.007812 104.011719 228.203125 104.789062 227.441406 105.53125 C 226.738281 106.222656 226.070312 106.886719 225.433594 107.535156 C 224.796875 108.175781 224.195312 108.800781 223.621094 109.410156 C 223.320312 109.734375 222.679688 109.734375 222.214844 109.410156 C 221.160156 108.667969 220.117188 107.910156 219.050781 107.179688 C 217.984375 106.445312 216.898438 105.742188 215.785156 105.101562 C 214.664062 104.460938 213.503906 103.882812 212.34375 103.332031 C 211.175781 102.773438 210 102.246094 208.832031 101.699219 C 208.3125 101.453125 208.003906 100.90625 208.140625 100.472656 C 208.386719 99.675781 208.644531 98.84375 208.902344 97.980469 C 209.160156 97.113281 209.417969 96.207031 209.683594 95.261719 C 209.96875 94.238281 210.257812 93.167969 210.558594 92.046875 C 210.863281 90.9375 211.183594 89.78125 211.523438 88.585938 C 211.730469 87.871094 212.554688 87.476562 213.324219 87.761719 M 182.484375 85.425781 C 184.296875 85.125 186.117188 84.890625 187.945312 84.753906 C 189.769531 84.617188 191.601562 84.554688 193.425781 84.570312 C 195.253906 84.582031 197.082031 84.671875 198.90625 84.820312 C 200.726562 84.96875 202.550781 85.195312 204.363281 85.464844 C 205.171875 85.585938 205.675781 86.3125 205.480469 87.039062 C 205.15625 88.25 204.828125 89.414062 204.511719 90.527344 C 204.191406 91.648438 203.875 92.722656 203.585938 93.75 C 203.324219 94.695312 203.074219 95.605469 202.847656 96.484375 C 202.617188 97.359375 202.410156 98.203125 202.214844 99.015625 C 202.113281 99.449219 201.5625 99.769531 200.996094 99.722656 C 199.710938 99.609375 198.425781 99.472656 197.140625 99.375 C 195.851562 99.273438 194.5625 99.203125 193.273438 99.210938 C 191.988281 99.214844 190.695312 99.292969 189.414062 99.398438 C 188.125 99.5 186.839844 99.632812 185.554688 99.742188 C 184.984375 99.789062 184.441406 99.46875 184.34375 99.027344 C 184.164062 98.214844 183.964844 97.363281 183.757812 96.484375 C 183.550781 95.605469 183.320312 94.691406 183.078125 93.742188 C 182.816406 92.714844 182.527344 91.636719 182.234375 90.519531 C 181.941406 89.40625 181.636719 88.246094 181.339844 87.039062 C 181.160156 86.3125 181.675781 85.5625 182.484375 85.425781 Z M 154.613281 98.835938 C 156.03125 97.667969 157.492188 96.554688 159.003906 95.523438 C 160.511719 94.496094 162.070312 93.519531 163.660156 92.617188 C 165.246094 91.71875 166.878906 90.878906 168.527344 90.09375 C 170.183594 89.308594 171.875 88.59375 173.582031 87.917969 C 174.339844 87.617188 175.140625 87.996094 175.335938 88.722656 C 175.65625 89.9375 175.953125 91.109375 176.234375 92.234375 C 176.515625 93.363281 176.78125 94.445312 177.046875 95.480469 C 177.289062 96.433594 177.53125 97.347656 177.769531 98.222656 C 178.007812 99.09375 178.25 99.933594 178.488281 100.730469 C 178.617188 101.160156 178.296875 101.710938 177.78125 101.953125 C 176.617188 102.496094 175.4375 103.023438 174.269531 103.582031 C 173.105469 104.140625 171.957031 104.722656 170.839844 105.375 C 169.726562 106.019531 168.648438 106.738281 167.585938 107.46875 C 166.523438 108.199219 165.480469 108.960938 164.417969 109.699219 C 163.949219 110.023438 163.320312 110.019531 163.015625 109.683594 C 162.453125 109.070312 161.859375 108.433594 161.242188 107.773438 C 160.621094 107.117188 159.960938 106.441406 159.277344 105.742188 C 158.539062 104.984375 157.75 104.195312 156.9375 103.375 C 156.128906 102.554688 155.285156 101.703125 154.425781 100.808594 C 153.90625 100.269531 153.980469 99.363281 154.613281 98.835938 Z M 137.171875 124.402344 C 137.816406 122.683594 138.523438 120.984375 139.320312 119.335938 C 140.113281 117.6875 140.976562 116.066406 141.902344 114.488281 C 142.824219 112.910156 143.816406 111.371094 144.859375 109.867188 C 145.898438 108.359375 147.003906 106.890625 148.144531 105.453125 C 148.652344 104.8125 149.535156 104.738281 150.066406 105.273438 C 150.949219 106.160156 151.796875 107.027344 152.597656 107.859375 C 153.402344 108.699219 154.179688 109.507812 154.925781 110.269531 C 155.609375 110.972656 156.277344 111.644531 156.917969 112.28125 C 157.5625 112.914062 158.1875 113.519531 158.796875 114.089844 C 159.121094 114.398438 159.121094 115.035156 158.792969 115.503906 C 158.054688 116.558594 157.296875 117.605469 156.566406 118.671875 C 155.832031 119.738281 155.132812 120.820312 154.488281 121.941406 C 153.851562 123.058594 153.273438 124.222656 152.722656 125.382812 C 152.167969 126.550781 151.640625 127.734375 151.089844 128.902344 C 150.847656 129.414062 150.296875 129.726562 149.867188 129.589844 C 149.074219 129.34375 148.242188 129.085938 147.378906 128.828125 C 146.511719 128.566406 145.605469 128.3125 144.660156 128.046875 C 143.640625 127.761719 142.566406 127.472656 141.453125 127.164062 C 140.34375 126.863281 139.1875 126.546875 137.992188 126.203125 C 137.277344 125.996094 136.882812 125.171875 137.171875 124.402344 Z M 134.839844 155.273438 C 134.535156 153.460938 134.304688 151.636719 134.167969 149.808594 C 134.027344 147.984375 133.96875 146.148438 133.980469 144.320312 C 133.996094 142.492188 134.082031 140.660156 134.230469 138.835938 C 134.378906 137.007812 134.605469 135.1875 134.878906 133.371094 C 134.996094 132.5625 135.722656 132.054688 136.449219 132.25 C 137.660156 132.578125 138.820312 132.90625 139.933594 133.226562 C 141.050781 133.542969 142.125 133.859375 143.152344 134.148438 C 144.097656 134.410156 145.011719 134.660156 145.886719 134.890625 C 146.757812 135.117188 147.601562 135.328125 148.414062 135.519531 C 148.847656 135.621094 149.167969 136.171875 149.117188 136.742188 C 149.007812 138.027344 148.871094 139.3125 148.769531 140.601562 C 148.671875 141.894531 148.601562 143.183594 148.605469 144.472656 C 148.609375 145.761719 148.691406 147.054688 148.792969 148.339844 C 148.894531 149.625 149.027344 150.914062 149.136719 152.203125 C 149.183594 152.769531 148.863281 153.3125 148.421875 153.414062 C 147.609375 153.59375 146.761719 153.789062 145.886719 153.996094 C 145.003906 154.203125 144.09375 154.4375 143.144531 154.679688 C 142.117188 154.941406 141.042969 155.230469 139.925781 155.523438 C 138.8125 155.816406 137.652344 156.121094 136.445312 156.421875 C 135.722656 156.601562 134.972656 156.082031 134.839844 155.273438 Z M 148.234375 183.175781 C 147.066406 181.753906 145.957031 180.292969 144.921875 178.78125 C 143.894531 177.269531 142.921875 175.710938 142.023438 174.117188 C 141.121094 172.53125 140.28125 170.894531 139.5 169.246094 C 138.714844 167.585938 138 165.898438 137.328125 164.1875 C 137.027344 163.429688 137.40625 162.625 138.128906 162.429688 C 139.34375 162.109375 140.511719 161.808594 141.636719 161.53125 C 142.765625 161.25 143.847656 160.984375 144.882812 160.71875 C 145.832031 160.476562 146.746094 160.234375 147.621094 159.992188 C 148.488281 159.75 149.324219 159.511719 150.125 159.273438 C 150.550781 159.144531 151.101562 159.460938 151.34375 159.976562 C 151.890625 161.148438 152.414062 162.328125 152.972656 163.496094 C 153.53125 164.664062 154.117188 165.816406 154.761719 166.929688 C 155.410156 168.042969 156.125 169.125 156.859375 170.183594 C 157.589844 171.25 158.347656 172.292969 159.082031 173.355469 C 159.40625 173.824219 159.402344 174.457031 159.070312 174.761719 C 158.457031 175.324219 157.820312 175.917969 157.160156 176.539062 C 156.507812 177.160156 155.832031 177.820312 155.132812 178.503906 C 154.375 179.246094 153.585938 180.03125 152.765625 180.847656 C 151.949219 181.65625 151.097656 182.496094 150.203125 183.363281 C 149.664062 183.878906 148.757812 183.808594 148.234375 183.175781 Z M 173.773438 200.632812 C 172.054688 199.984375 170.359375 199.28125 168.707031 198.484375 C 167.0625 197.691406 165.445312 196.824219 163.867188 195.902344 C 162.296875 194.972656 160.75 193.984375 159.25 192.9375 C 157.746094 191.898438 156.28125 190.792969 154.839844 189.648438 C 154.203125 189.140625 154.128906 188.257812 154.660156 187.726562 C 155.550781 186.839844 156.417969 185.996094 157.246094 185.191406 C 158.085938 184.382812 158.894531 183.609375 159.65625 182.859375 C 160.355469 182.179688 161.027344 181.507812 161.660156 180.867188 C 162.296875 180.21875 162.902344 179.59375 163.46875 178.988281 C 163.777344 178.660156 164.414062 178.660156 164.878906 178.992188 C 165.9375 179.730469 166.980469 180.488281 168.050781 181.21875 C 169.113281 181.949219 170.195312 182.65625 171.3125 183.296875 C 172.429688 183.9375 173.589844 184.515625 174.75 185.066406 C 175.917969 185.621094 177.097656 186.148438 178.265625 186.699219 C 178.78125 186.945312 179.089844 187.496094 178.957031 187.925781 C 178.703125 188.71875 178.449219 189.554688 178.191406 190.417969 C 177.929688 191.285156 177.675781 192.191406 177.410156 193.136719 C 177.125 194.15625 176.839844 195.234375 176.535156 196.351562 C 176.230469 197.460938 175.914062 198.613281 175.570312 199.8125 C 175.363281 200.527344 174.542969 200.921875 173.773438 200.632812 Z M 204.609375 202.96875 C 202.796875 203.273438 200.976562 203.503906 199.152344 203.644531 C 197.332031 203.78125 195.496094 203.839844 193.667969 203.828125 C 191.84375 203.8125 190.011719 203.726562 188.1875 203.578125 C 186.363281 203.429688 184.542969 203.203125 182.730469 202.933594 C 181.921875 202.808594 181.417969 202.082031 181.613281 201.359375 C 181.941406 200.144531 182.265625 198.984375 182.585938 197.871094 C 182.90625 196.75 183.21875 195.671875 183.507812 194.644531 C 183.769531 193.703125 184.019531 192.789062 184.246094 191.914062 C 184.472656 191.035156 184.683594 190.195312 184.875 189.378906 C 184.980469 188.945312 185.53125 188.625 186.097656 188.675781 C 187.382812 188.785156 188.667969 188.921875 189.953125 189.023438 C 191.246094 189.125 192.53125 189.191406 193.820312 189.1875 C 195.109375 189.183594 196.402344 189.101562 197.679688 189 C 198.96875 188.894531 200.253906 188.761719 201.542969 188.65625 C 202.109375 188.609375 202.652344 188.929688 202.75 189.371094 C 202.929688 190.1875 203.125 191.035156 203.332031 191.914062 C 203.539062 192.792969 203.773438 193.703125 204.015625 194.652344 C 204.28125 195.683594 204.566406 196.757812 204.859375 197.875 C 205.15625 198.992188 205.457031 200.152344 205.757812 201.359375 C 205.933594 202.082031 205.417969 202.835938 204.609375 202.96875 Z M 232.484375 189.558594 C 231.0625 190.726562 229.605469 191.839844 228.09375 192.875 C 226.582031 193.902344 225.023438 194.875 223.4375 195.777344 C 221.847656 196.683594 220.214844 197.519531 218.566406 198.304688 C 216.910156 199.085938 215.222656 199.804688 213.515625 200.480469 C 212.757812 200.78125 211.949219 200.402344 211.757812 199.671875 C 211.4375 198.460938 211.144531 197.292969 210.863281 196.164062 C 210.578125 195.035156 210.316406 193.949219 210.050781 192.914062 C 209.808594 191.964844 209.566406 191.046875 209.324219 190.175781 C 209.082031 189.304688 208.847656 188.46875 208.605469 187.667969 C 208.476562 187.238281 208.792969 186.6875 209.3125 186.449219 C 210.480469 185.898438 211.660156 185.375 212.824219 184.816406 C 213.992188 184.257812 215.136719 183.671875 216.253906 183.023438 C 217.367188 182.375 218.445312 181.660156 219.507812 180.925781 C 220.570312 180.195312 221.613281 179.4375 222.675781 178.699219 C 223.144531 178.371094 223.777344 178.378906 224.082031 178.710938 C 224.636719 179.328125 225.234375 179.960938 225.851562 180.621094 C 226.472656 181.277344 227.132812 181.953125 227.816406 182.65625 C 228.558594 183.414062 229.34375 184.199219 230.152344 185.023438 C 230.964844 185.839844 231.804688 186.695312 232.671875 187.589844 C 233.183594 188.128906 233.117188 189.035156 232.484375 189.558594 Z M 191.347656 78.222656 L 195.742188 78.222656 L 195.742188 81.195312 L 191.347656 81.195312 Z M 184.472656 78.8125 L 188.839844 78.351562 L 189.152344 81.3125 L 184.78125 81.773438 Z M 177.691406 80.117188 L 181.992188 79.203125 L 182.609375 82.117188 L 178.308594 83.03125 Z M 171.085938 82.132812 L 175.265625 80.773438 L 176.183594 83.601562 L 172.003906 84.960938 Z M 164.730469 84.820312 L 168.742188 83.03125 L 169.949219 85.75 L 165.9375 87.539062 Z M 158.6875 88.160156 L 162.488281 85.960938 L 163.976562 88.539062 L 160.171875 90.738281 Z M 153.023438 92.117188 L 156.578125 89.53125 L 158.324219 91.9375 L 154.773438 94.523438 Z M 147.808594 96.640625 L 151.070312 93.695312 L 153.058594 95.910156 L 149.796875 98.851562 Z M 143.089844 101.6875 L 146.027344 98.417969 L 148.238281 100.410156 L 145.296875 103.679688 Z M 138.917969 107.203125 L 141.503906 103.644531 L 143.90625 105.394531 L 141.324219 108.953125 Z M 135.355469 113.121094 L 137.550781 109.3125 L 140.125 110.800781 L 137.929688 114.609375 Z M 132.425781 119.382812 L 134.214844 115.363281 L 136.929688 116.578125 L 135.140625 120.589844 Z M 130.164062 125.914062 L 131.527344 121.730469 L 134.351562 122.652344 L 132.992188 126.832031 Z M 128.601562 132.648438 L 129.515625 128.34375 L 132.425781 128.964844 L 131.511719 133.261719 Z M 127.75 139.507812 L 128.210938 135.128906 L 131.164062 135.441406 L 130.707031 139.816406 Z M 127.621094 146.414062 L 127.621094 142.015625 L 130.589844 142.015625 L 130.589844 146.414062 Z M 128.210938 153.300781 L 127.75 148.929688 L 130.707031 148.613281 L 131.167969 152.992188 Z M 129.515625 160.089844 L 128.601562 155.785156 L 131.511719 155.167969 L 132.425781 159.46875 Z M 131.515625 166.714844 L 130.160156 162.53125 L 132.984375 161.613281 L 134.34375 165.796875 Z M 134.214844 173.066406 L 132.425781 169.050781 L 135.140625 167.839844 L 136.929688 171.855469 Z M 137.550781 179.121094 L 135.355469 175.308594 L 137.929688 173.824219 L 140.125 177.632812 Z M 141.503906 184.785156 L 138.917969 181.226562 L 141.324219 179.480469 L 143.910156 183.035156 Z M 146.023438 190.007812 L 143.082031 186.742188 L 145.292969 184.75 L 148.234375 188.019531 Z M 151.066406 194.730469 L 147.800781 191.785156 L 149.789062 189.578125 L 153.054688 192.523438 Z M 156.574219 198.902344 L 153.019531 196.316406 L 154.765625 193.910156 L 158.320312 196.492188 Z M 162.484375 202.46875 L 158.683594 200.269531 L 160.167969 197.691406 L 163.972656 199.890625 Z M 168.738281 205.398438 L 164.726562 203.609375 L 165.933594 200.894531 L 169.945312 202.683594 Z M 175.261719 207.660156 L 171.082031 206.300781 L 172.003906 203.472656 L 176.183594 204.828125 Z M 181.988281 209.226562 L 177.6875 208.308594 L 178.308594 205.402344 L 182.609375 206.316406 Z M 188.839844 210.078125 L 184.472656 209.621094 L 184.78125 206.660156 L 189.152344 207.121094 Z M 195.746094 210.210938 L 191.351562 210.210938 L 191.351562 207.238281 L 195.746094 207.234375 Z M 202.617188 209.621094 L 198.253906 210.078125 L 197.945312 207.121094 L 202.308594 206.660156 Z M 209.398438 208.308594 L 205.105469 209.226562 L 204.488281 206.316406 L 208.78125 205.398438 Z M 216.007812 206.300781 L 211.828125 207.660156 L 210.914062 204.828125 L 215.085938 203.46875 Z M 222.367188 203.609375 L 218.351562 205.398438 L 217.144531 202.683594 L 221.160156 200.890625 Z M 228.414062 200.269531 L 224.605469 202.46875 L 223.125 199.890625 L 226.925781 197.691406 Z M 234.074219 196.316406 L 230.519531 198.902344 L 228.769531 196.492188 L 232.324219 193.90625 Z M 239.292969 191.785156 L 236.027344 194.730469 L 234.039062 192.523438 L 237.304688 189.574219 Z M 236.027344 93.699219 L 239.292969 96.644531 L 237.304688 98.851562 L 234.035156 95.910156 Z M 230.519531 89.53125 L 234.074219 92.117188 L 232.324219 94.523438 L 228.769531 91.9375 Z M 224.605469 85.964844 L 228.414062 88.160156 L 226.925781 90.738281 L 223.121094 88.539062 Z M 218.351562 83.03125 L 222.367188 84.820312 L 221.160156 87.539062 L 217.140625 85.75 Z M 211.828125 80.773438 L 216.007812 82.132812 L 215.085938 84.960938 L 210.90625 83.601562 Z M 205.105469 79.203125 L 209.402344 80.121094 L 208.78125 83.03125 L 204.480469 82.117188 Z M 198.253906 78.351562 L 202.625 78.8125 L 202.308594 81.773438 L 197.945312 81.3125 Z M 191.484375 102.253906 L 195.617188 102.253906 L 195.617188 105.058594 L 191.484375 105.058594 Z M 184.953125 103.097656 L 189.039062 102.449219 L 189.472656 105.214844 L 185.390625 105.863281 Z M 178.636719 104.949219 L 182.570312 103.671875 L 183.433594 106.332031 L 179.5 107.609375 Z M 172.683594 107.765625 L 176.371094 105.886719 L 177.640625 108.382812 L 173.957031 110.261719 Z M 167.25 111.484375 L 170.59375 109.050781 L 172.238281 111.3125 L 168.894531 113.746094 Z M 162.460938 116.003906 L 165.382812 113.074219 L 167.363281 115.054688 L 164.4375 117.984375 Z M 158.433594 121.222656 L 160.867188 117.875 L 163.128906 119.515625 L 160.699219 122.863281 Z M 155.277344 127.003906 L 157.152344 123.3125 L 159.648438 124.585938 L 157.769531 128.273438 Z M 153.054688 133.214844 L 154.332031 129.273438 L 156.992188 130.140625 L 155.714844 134.082031 Z M 151.835938 139.691406 L 152.480469 135.597656 L 155.246094 136.039062 L 154.597656 140.128906 Z M 151.640625 146.277344 L 151.640625 142.140625 L 154.441406 142.140625 L 154.441406 146.277344 Z M 152.480469 152.816406 L 151.835938 148.726562 L 154.597656 148.289062 L 155.246094 152.378906 Z M 154.332031 159.136719 L 153.054688 155.203125 L 155.714844 154.339844 L 156.996094 158.277344 Z M 157.148438 165.097656 L 155.269531 161.410156 L 157.765625 160.136719 L 159.640625 163.828125 Z M 160.863281 170.542969 L 158.433594 167.191406 L 160.695312 165.546875 L 163.125 168.894531 Z M 165.375 175.34375 L 162.449219 172.421875 L 164.429688 170.441406 L 167.355469 173.367188 Z M 170.589844 179.367188 L 167.246094 176.929688 L 168.890625 174.667969 L 172.234375 177.097656 Z M 176.367188 182.539062 L 172.679688 180.660156 L 173.949219 178.164062 L 177.628906 180.042969 Z M 182.566406 184.757812 L 178.632812 183.480469 L 179.5 180.816406 L 183.429688 182.097656 Z M 208.472656 183.480469 L 204.539062 184.757812 L 203.675781 182.097656 L 207.605469 180.816406 Z M 214.421875 180.660156 L 210.738281 182.539062 L 209.46875 180.042969 L 213.152344 178.164062 Z M 219.863281 176.941406 L 216.511719 179.375 L 214.871094 177.109375 L 218.21875 174.679688 Z M 223.246094 173.839844 L 221.730469 175.355469 L 219.757812 173.375 L 221.25 171.878906 Z M 221.738281 113.082031 L 223.511719 114.859375 L 221.5625 116.875 L 219.757812 115.0625 Z M 216.523438 109.054688 L 219.867188 111.488281 L 218.222656 113.75 L 214.878906 111.316406 Z M 210.746094 105.886719 L 214.425781 107.773438 L 213.160156 110.265625 L 209.46875 108.386719 Z M 204.539062 103.671875 L 208.472656 104.949219 L 207.605469 107.609375 L 203.679688 106.332031 Z M 198.066406 102.445312 L 202.152344 103.097656 L 201.714844 105.863281 L 197.628906 105.214844 Z M 189.039062 185.980469 L 184.953125 185.332031 L 185.390625 182.566406 L 189.472656 183.210938 Z M 195.617188 186.175781 L 191.484375 186.171875 L 191.484375 183.375 L 195.617188 183.375 Z M 202.152344 185.332031 L 198.066406 185.980469 L 197.628906 183.210938 L 201.714844 182.566406 Z M 202.152344 185.332031 " clip-rule="evenodd"/></clipPath><radialGradient gradientTransform="matrix(0.999474, 0, 0, 1.000526, 127.62127, 78.221128)" gradientUnits="userSpaceOnUse" r="61.121376" cx="55.864931" id="9398d50eb2" cy="65.960397" fx="55.864931" fy="65.960397"><stop stop-opacity="1" stop-color="rgb(7.499695%, 4.699707%, 5.499268%)" offset="0"/><stop stop-opacity="1" stop-color="rgb(7.499695%, 4.699707%, 5.499268%)" offset="1"/></radialGradient></defs><g clip-path="url(#b3db975921)"><g clip-path="url(#d384efc22c)"><path fill="url(#9398d50eb2)" d="M 127.621094 78.222656 L 127.621094 210.210938 L 239.292969 210.210938 L 239.292969 78.222656 Z M 127.621094 78.222656 " fill-rule="nonzero"/></g></g><g fill="#130c0e" fill-opacity="1"><g transform="translate(82.755236, 265.011874)"><g><path d="M 20.515625 0.828125 C 18.398438 0.828125 16.40625 0.546875 14.53125 -0.015625 C 12.65625 -0.578125 10.953125 -1.390625 9.421875 -2.453125 C 7.898438 -3.523438 6.582031 -4.8125 5.46875 -6.3125 C 4.363281 -7.820312 3.507812 -9.515625 2.90625 -11.390625 C 2.300781 -13.273438 2 -15.316406 2 -17.515625 C 2 -19.722656 2.300781 -21.765625 2.90625 -23.640625 C 3.507812 -25.523438 4.363281 -27.21875 5.46875 -28.71875 C 6.582031 -30.226562 7.898438 -31.515625 9.421875 -32.578125 C 10.953125 -33.640625 12.648438 -34.453125 14.515625 -35.015625 C 16.378906 -35.578125 18.367188 -35.859375 20.484375 -35.859375 C 23.347656 -35.859375 25.953125 -35.351562 28.296875 -34.34375 C 30.648438 -33.34375 32.644531 -31.957031 34.28125 -30.1875 C 34.726562 -29.738281 34.691406 -29.3125 34.171875 -28.90625 L 30.484375 -26.28125 C 30.035156 -25.914062 29.609375 -25.953125 29.203125 -26.390625 C 28.117188 -27.472656 26.832031 -28.328125 25.34375 -28.953125 C 23.863281 -29.585938 22.242188 -29.90625 20.484375 -29.90625 C 18.785156 -29.90625 17.203125 -29.613281 15.734375 -29.03125 C 14.273438 -28.445312 13 -27.609375 11.90625 -26.515625 C 10.8125 -25.429688 9.957031 -24.128906 9.34375 -22.609375 C 8.738281 -21.085938 8.4375 -19.398438 8.4375 -17.546875 C 8.4375 -15.671875 8.738281 -13.972656 9.34375 -12.453125 C 9.957031 -10.929688 10.8125 -9.625 11.90625 -8.53125 C 13 -7.4375 14.28125 -6.59375 15.75 -6 C 17.21875 -5.414062 18.8125 -5.125 20.53125 -5.125 C 22.28125 -5.125 23.894531 -5.441406 25.375 -6.078125 C 26.863281 -6.710938 28.140625 -7.566406 29.203125 -8.640625 C 29.609375 -9.066406 30.035156 -9.109375 30.484375 -8.765625 L 34.171875 -6.15625 C 34.703125 -5.75 34.769531 -5.335938 34.375 -4.921875 C 32.75 -3.128906 30.75 -1.722656 28.375 -0.703125 C 26 0.316406 23.378906 0.828125 20.515625 0.828125 Z M 20.515625 0.828125 "/></g></g></g><g fill="#130c0e" fill-opacity="1"><g transform="translate(123.49845, 265.011874)"><g><path d="M 8.9375 0 L 4.40625 0 C 3.78125 0 3.46875 -0.3125 3.46875 -0.9375 L 3.46875 -34.109375 C 3.46875 -34.734375 3.78125 -35.046875 4.40625 -35.046875 L 8.9375 -35.046875 C 9.5625 -35.046875 9.875 -34.734375 9.875 -34.109375 L 9.875 -0.9375 C 9.875 -0.3125 9.5625 0 8.9375 0 Z M 8.9375 0 "/></g></g></g><g fill="#130c0e" fill-opacity="1"><g transform="translate(141.517998, 265.011874)"><g><path d="M 8.828125 0 L 4.453125 0 C 3.828125 0 3.515625 -0.3125 3.515625 -0.9375 L 3.515625 -34.234375 C 3.515625 -35.078125 3.742188 -35.585938 4.203125 -35.765625 C 4.671875 -35.953125 5.203125 -35.75 5.796875 -35.15625 L 25.78125 -14.390625 L 25.78125 -34.109375 C 25.78125 -34.734375 26.09375 -35.046875 26.71875 -35.046875 L 31.109375 -35.046875 C 31.734375 -35.046875 32.046875 -34.734375 32.046875 -34.109375 L 32.046875 -0.828125 C 32.046875 0.015625 31.800781 0.519531 31.3125 0.6875 C 30.832031 0.851562 30.269531 0.625 29.625 0 L 9.765625 -21.1875 L 9.765625 -0.9375 C 9.765625 -0.3125 9.453125 0 8.828125 0 Z M 8.828125 0 "/></g></g></g><g fill="#130c0e" fill-opacity="1"><g transform="translate(181.782093, 265.011874)"><g><path d="M 23.296875 0 L 4.40625 0 C 3.78125 0 3.46875 -0.3125 3.46875 -0.9375 L 3.46875 -34.109375 C 3.46875 -34.734375 3.78125 -35.046875 4.40625 -35.046875 L 23.296875 -35.046875 C 23.910156 -35.046875 24.21875 -34.734375 24.21875 -34.109375 L 24.21875 -30.296875 C 24.21875 -29.671875 23.910156 -29.359375 23.296875 -29.359375 L 9.875 -29.359375 L 9.875 -16.96875 L 21.46875 -16.96875 C 22.09375 -16.96875 22.40625 -16.65625 22.40625 -16.03125 L 22.40625 -12.484375 C 22.40625 -11.859375 22.09375 -11.546875 21.46875 -11.546875 L 9.875 -11.546875 L 9.875 -5.6875 L 23.296875 -5.6875 C 23.910156 -5.6875 24.21875 -5.375 24.21875 -4.75 L 24.21875 -0.9375 C 24.21875 -0.3125 23.910156 0 23.296875 0 Z M 23.296875 0 "/></g></g></g><g fill="#130c0e" fill-opacity="1"><g transform="translate(212.851779, 265.011874)"><g><path d="M 8.875 0 L 4.453125 0 C 3.828125 0 3.515625 -0.3125 3.515625 -0.9375 L 3.515625 -34.28125 C 3.515625 -34.875 3.628906 -35.300781 3.859375 -35.5625 C 4.085938 -35.832031 4.378906 -35.929688 4.734375 -35.859375 C 5.085938 -35.785156 5.441406 -35.515625 5.796875 -35.046875 L 20.421875 -15.65625 L 35.078125 -35.046875 C 35.429688 -35.515625 35.78125 -35.785156 36.125 -35.859375 C 36.476562 -35.929688 36.769531 -35.832031 37 -35.5625 C 37.238281 -35.300781 37.359375 -34.875 37.359375 -34.28125 L 37.359375 -0.9375 C 37.359375 -0.3125 37.050781 0 36.4375 0 L 32 0 C 31.375 0 31.0625 -0.3125 31.0625 -0.9375 L 31.0625 -19.578125 L 21.078125 -6.59375 C 20.878906 -6.320312 20.660156 -6.1875 20.421875 -6.1875 C 20.191406 -6.1875 19.96875 -6.320312 19.75 -6.59375 L 9.8125 -19.53125 L 9.8125 -0.9375 C 9.8125 -0.3125 9.5 0 8.875 0 Z M 8.875 0 "/></g></g></g><g fill="#130c0e" fill-opacity="1"><g transform="translate(258.408943, 265.011874)"><g><path d="M 17.90625 -35.046875 L 33.03125 -1.09375 C 33.164062 -0.757812 33.164062 -0.492188 33.03125 -0.296875 C 32.90625 -0.0976562 32.671875 0 32.328125 0 L 27.3125 0 C 26.769531 0 26.410156 -0.242188 26.234375 -0.734375 L 24.25 -5.65625 L 9.53125 -5.65625 L 7.546875 -0.734375 C 7.367188 -0.242188 7.015625 0 6.484375 0 L 1.4375 0 C 1.101562 0 0.867188 -0.0976562 0.734375 -0.296875 C 0.597656 -0.492188 0.601562 -0.757812 0.75 -1.09375 L 15.859375 -35.046875 C 16.128906 -35.628906 16.472656 -35.921875 16.890625 -35.921875 C 17.304688 -35.921875 17.644531 -35.628906 17.90625 -35.046875 Z M 16.90625 -23.890625 L 11.609375 -10.796875 L 22.171875 -10.796875 Z M 16.90625 -23.890625 "/></g></g></g><g fill="#130c0e" fill-opacity="1"><g transform="translate(141.534118, 291.999871)"><g><path d="M 2.59375 0 L 1.640625 0 C 1.410156 0 1.296875 -0.113281 1.296875 -0.34375 L 1.296875 -12.6875 C 1.296875 -12.914062 1.410156 -13.03125 1.640625 -13.03125 L 5.078125 -13.03125 C 6.835938 -13.03125 8.128906 -12.644531 8.953125 -11.875 C 9.773438 -11.113281 10.1875 -10.007812 10.1875 -8.5625 C 10.1875 -7.082031 9.769531 -5.960938 8.9375 -5.203125 C 8.101562 -4.453125 6.851562 -4.078125 5.1875 -4.078125 L 2.9375 -4.078125 L 2.9375 -0.34375 C 2.9375 -0.113281 2.820312 0 2.59375 0 Z M 2.9375 -11.484375 L 2.9375 -5.625 L 4.96875 -5.625 C 5.144531 -5.625 5.351562 -5.628906 5.59375 -5.640625 C 5.84375 -5.648438 6.097656 -5.679688 6.359375 -5.734375 C 6.628906 -5.785156 6.894531 -5.875 7.15625 -6 C 7.414062 -6.125 7.648438 -6.289062 7.859375 -6.5 C 8.066406 -6.71875 8.234375 -6.992188 8.359375 -7.328125 C 8.492188 -7.660156 8.5625 -8.070312 8.5625 -8.5625 C 8.5625 -9.039062 8.5 -9.445312 8.375 -9.78125 C 8.25 -10.113281 8.082031 -10.382812 7.875 -10.59375 C 7.664062 -10.8125 7.429688 -10.976562 7.171875 -11.09375 C 6.910156 -11.21875 6.644531 -11.304688 6.375 -11.359375 C 6.113281 -11.410156 5.859375 -11.441406 5.609375 -11.453125 C 5.367188 -11.472656 5.15625 -11.484375 4.96875 -11.484375 Z M 2.9375 -11.484375 "/></g></g></g><g fill="#130c0e" fill-opacity="1"><g transform="translate(155.383075, 291.999871)"><g><path d="M 7.921875 -4.5625 L 10.03125 -0.421875 C 10.09375 -0.296875 10.097656 -0.191406 10.046875 -0.109375 C 9.992188 -0.0351562 9.90625 0 9.78125 0 L 8.640625 0 C 8.453125 0 8.316406 -0.0859375 8.234375 -0.265625 L 6.28125 -4.125 C 6.113281 -4.101562 5.9375 -4.085938 5.75 -4.078125 C 5.570312 -4.078125 5.382812 -4.078125 5.1875 -4.078125 L 2.9375 -4.078125 L 2.9375 -0.34375 C 2.9375 -0.113281 2.820312 0 2.59375 0 L 1.640625 0 C 1.410156 0 1.296875 -0.113281 1.296875 -0.34375 L 1.296875 -12.6875 C 1.296875 -12.914062 1.410156 -13.03125 1.640625 -13.03125 L 5.078125 -13.03125 C 6.835938 -13.03125 8.128906 -12.644531 8.953125 -11.875 C 9.773438 -11.113281 10.1875 -10.007812 10.1875 -8.5625 C 10.1875 -6.550781 9.429688 -5.21875 7.921875 -4.5625 Z M 2.9375 -5.625 L 4.96875 -5.625 C 5.144531 -5.625 5.351562 -5.628906 5.59375 -5.640625 C 5.84375 -5.648438 6.097656 -5.679688 6.359375 -5.734375 C 6.628906 -5.785156 6.894531 -5.875 7.15625 -6 C 7.414062 -6.125 7.648438 -6.289062 7.859375 -6.5 C 8.066406 -6.71875 8.234375 -6.992188 8.359375 -7.328125 C 8.492188 -7.660156 8.5625 -8.070312 8.5625 -8.5625 C 8.5625 -9.039062 8.5 -9.445312 8.375 -9.78125 C 8.25 -10.113281 8.082031 -10.382812 7.875 -10.59375 C 7.664062 -10.8125 7.429688 -10.976562 7.171875 -11.09375 C 6.910156 -11.21875 6.644531 -11.304688 6.375 -11.359375 C 6.113281 -11.410156 5.859375 -11.441406 5.609375 -11.453125 C 5.367188 -11.472656 5.15625 -11.484375 4.96875 -11.484375 L 2.9375 -11.484375 Z M 2.9375 -5.625 "/></g></g></g><g fill="#130c0e" fill-opacity="1"><g transform="translate(169.495023, 291.999871)"><g><path d="M 7.515625 0.265625 C 6.765625 0.265625 6.046875 0.160156 5.359375 -0.046875 C 4.679688 -0.253906 4.0625 -0.554688 3.5 -0.953125 C 2.9375 -1.359375 2.445312 -1.835938 2.03125 -2.390625 C 1.625 -2.953125 1.304688 -3.578125 1.078125 -4.265625 C 0.847656 -4.960938 0.734375 -5.710938 0.734375 -6.515625 C 0.734375 -7.316406 0.847656 -8.0625 1.078125 -8.75 C 1.304688 -9.445312 1.625 -10.070312 2.03125 -10.625 C 2.445312 -11.1875 2.9375 -11.664062 3.5 -12.0625 C 4.0625 -12.457031 4.679688 -12.757812 5.359375 -12.96875 C 6.046875 -13.1875 6.765625 -13.296875 7.515625 -13.296875 C 8.265625 -13.296875 8.976562 -13.1875 9.65625 -12.96875 C 10.34375 -12.757812 10.96875 -12.457031 11.53125 -12.0625 C 12.101562 -11.664062 12.59375 -11.1875 13 -10.625 C 13.414062 -10.070312 13.734375 -9.445312 13.953125 -8.75 C 14.179688 -8.0625 14.296875 -7.316406 14.296875 -6.515625 C 14.296875 -5.710938 14.179688 -4.960938 13.953125 -4.265625 C 13.734375 -3.578125 13.414062 -2.953125 13 -2.390625 C 12.59375 -1.835938 12.101562 -1.359375 11.53125 -0.953125 C 10.96875 -0.554688 10.347656 -0.253906 9.671875 -0.046875 C 8.992188 0.160156 8.273438 0.265625 7.515625 0.265625 Z M 7.515625 -1.328125 C 8.222656 -1.328125 8.882812 -1.453125 9.5 -1.703125 C 10.113281 -1.953125 10.65625 -2.304688 11.125 -2.765625 C 11.59375 -3.234375 11.957031 -3.78125 12.21875 -4.40625 C 12.488281 -5.039062 12.625 -5.742188 12.625 -6.515625 C 12.625 -7.285156 12.488281 -7.984375 12.21875 -8.609375 C 11.957031 -9.242188 11.59375 -9.789062 11.125 -10.25 C 10.65625 -10.71875 10.113281 -11.078125 9.5 -11.328125 C 8.882812 -11.578125 8.222656 -11.703125 7.515625 -11.703125 C 6.804688 -11.703125 6.140625 -11.578125 5.515625 -11.328125 C 4.898438 -11.078125 4.359375 -10.71875 3.890625 -10.25 C 3.421875 -9.789062 3.054688 -9.242188 2.796875 -8.609375 C 2.535156 -7.984375 2.40625 -7.285156 2.40625 -6.515625 C 2.40625 -5.753906 2.535156 -5.054688 2.796875 -4.421875 C 3.066406 -3.785156 3.4375 -3.238281 3.90625 -2.78125 C 4.375 -2.320312 4.914062 -1.960938 5.53125 -1.703125 C 6.144531 -1.453125 6.804688 -1.328125 7.515625 -1.328125 Z M 7.515625 -1.328125 "/></g></g></g><g fill="#130c0e" fill-opacity="1"><g transform="translate(187.585653, 291.999871)"><g><path d="M 2.421875 0.265625 C 2.171875 0.265625 1.898438 0.25 1.609375 0.21875 C 1.316406 0.1875 0.960938 0.113281 0.546875 0 C 0.335938 -0.0703125 0.257812 -0.21875 0.3125 -0.4375 L 0.484375 -1.28125 C 0.535156 -1.519531 0.6875 -1.597656 0.9375 -1.515625 C 1.238281 -1.410156 1.488281 -1.347656 1.6875 -1.328125 C 1.894531 -1.304688 2.0625 -1.296875 2.1875 -1.296875 C 2.4375 -1.296875 2.640625 -1.335938 2.796875 -1.421875 C 2.960938 -1.503906 3.082031 -1.65625 3.15625 -1.875 C 3.238281 -2.09375 3.28125 -2.398438 3.28125 -2.796875 L 3.28125 -12.6875 C 3.28125 -12.914062 3.394531 -13.03125 3.625 -13.03125 L 4.578125 -13.03125 C 4.804688 -13.03125 4.921875 -12.914062 4.921875 -12.6875 L 4.921875 -2.828125 C 4.921875 -1.753906 4.703125 -0.96875 4.265625 -0.46875 C 3.828125 0.0195312 3.210938 0.265625 2.421875 0.265625 Z M 2.421875 0.265625 "/></g></g></g><g fill="#130c0e" fill-opacity="1"><g transform="translate(196.81967, 291.999871)"><g><path d="M 7.9375 0 L 1.640625 0 C 1.410156 0 1.296875 -0.113281 1.296875 -0.34375 L 1.296875 -12.6875 C 1.296875 -12.914062 1.410156 -13.03125 1.640625 -13.03125 L 7.9375 -13.03125 C 8.164062 -13.03125 8.28125 -12.914062 8.28125 -12.6875 L 8.28125 -11.828125 C 8.28125 -11.597656 8.164062 -11.484375 7.9375 -11.484375 L 2.953125 -11.484375 L 2.953125 -5.6875 L 7.265625 -5.6875 C 7.492188 -5.6875 7.609375 -5.570312 7.609375 -5.34375 L 7.609375 -4.515625 C 7.609375 -4.285156 7.492188 -4.171875 7.265625 -4.171875 L 2.953125 -4.171875 L 2.953125 -1.546875 L 7.9375 -1.546875 C 8.164062 -1.546875 8.28125 -1.429688 8.28125 -1.203125 L 8.28125 -0.34375 C 8.28125 -0.113281 8.164062 0 7.9375 0 Z M 7.9375 0 "/></g></g></g><g fill="#130c0e" fill-opacity="1"><g transform="translate(208.827748, 291.999871)"><g><path d="M 7.5 0.265625 C 6.75 0.265625 6.035156 0.160156 5.359375 -0.046875 C 4.691406 -0.253906 4.070312 -0.554688 3.5 -0.953125 C 2.9375 -1.347656 2.445312 -1.820312 2.03125 -2.375 C 1.625 -2.9375 1.304688 -3.566406 1.078125 -4.265625 C 0.847656 -4.960938 0.734375 -5.710938 0.734375 -6.515625 C 0.734375 -7.316406 0.847656 -8.066406 1.078125 -8.765625 C 1.304688 -9.460938 1.625 -10.085938 2.03125 -10.640625 C 2.445312 -11.203125 2.9375 -11.679688 3.5 -12.078125 C 4.070312 -12.472656 4.691406 -12.773438 5.359375 -12.984375 C 6.035156 -13.191406 6.742188 -13.296875 7.484375 -13.296875 C 8.429688 -13.296875 9.304688 -13.128906 10.109375 -12.796875 C 10.921875 -12.472656 11.628906 -12.019531 12.234375 -11.4375 C 12.316406 -11.351562 12.351562 -11.269531 12.34375 -11.1875 C 12.332031 -11.113281 12.289062 -11.035156 12.21875 -10.953125 L 11.46875 -10.34375 C 11.300781 -10.195312 11.140625 -10.203125 10.984375 -10.359375 C 10.515625 -10.773438 9.984375 -11.101562 9.390625 -11.34375 C 8.804688 -11.582031 8.171875 -11.703125 7.484375 -11.703125 C 6.785156 -11.703125 6.128906 -11.578125 5.515625 -11.328125 C 4.898438 -11.078125 4.359375 -10.722656 3.890625 -10.265625 C 3.429688 -9.804688 3.066406 -9.257812 2.796875 -8.625 C 2.535156 -7.988281 2.40625 -7.289062 2.40625 -6.53125 C 2.40625 -5.757812 2.535156 -5.054688 2.796875 -4.421875 C 3.066406 -3.785156 3.4375 -3.238281 3.90625 -2.78125 C 4.375 -2.320312 4.914062 -1.960938 5.53125 -1.703125 C 6.144531 -1.453125 6.804688 -1.328125 7.515625 -1.328125 C 8.179688 -1.328125 8.8125 -1.445312 9.40625 -1.6875 C 10 -1.925781 10.523438 -2.253906 10.984375 -2.671875 C 11.140625 -2.816406 11.300781 -2.820312 11.46875 -2.6875 L 12.21875 -2.09375 C 12.40625 -1.925781 12.421875 -1.769531 12.265625 -1.625 C 11.671875 -1.039062 10.960938 -0.578125 10.140625 -0.234375 C 9.328125 0.0976562 8.445312 0.265625 7.5 0.265625 Z M 7.5 0.265625 "/></g></g></g><g fill="#130c0e" fill-opacity="1"><g transform="translate(224.763612, 291.999871)"><g><path d="M 4.828125 0 L 3.859375 0 C 3.617188 0 3.5 -0.113281 3.5 -0.34375 L 3.5 -11.484375 L 0.546875 -11.484375 C 0.316406 -11.484375 0.203125 -11.597656 0.203125 -11.828125 L 0.203125 -12.6875 C 0.203125 -12.914062 0.316406 -13.03125 0.546875 -13.03125 L 8.125 -13.03125 C 8.351562 -13.03125 8.46875 -12.914062 8.46875 -12.6875 L 8.46875 -11.828125 C 8.46875 -11.597656 8.351562 -11.484375 8.125 -11.484375 L 5.171875 -11.484375 L 5.171875 -0.34375 C 5.171875 -0.113281 5.054688 0 4.828125 0 Z M 4.828125 0 "/></g></g></g></svg>