<svg xmlns="http://www.w3.org/2000/svg" xmlns:xlink="http://www.w3.org/1999/xlink" width="500" zoomAndPan="magnify" viewBox="0 0 375 374.999991" height="500" preserveAspectRatio="xMidYMid meet" version="1.0"><defs><g/><clipPath id="edfc9e69d5"><path d="M 127.578125 109 L 247.578125 109 L 247.578125 220 L 127.578125 220 Z M 127.578125 109 " clip-rule="nonzero"/></clipPath></defs><g clip-path="url(#edfc9e69d5)"><path fill="#ff2d55" d="M 246.488281 181.550781 C 247.414062 182.617188 247.328125 183.207031 246.960938 184.472656 C 245.933594 187.972656 238.375 200.28125 235.878906 203.648438 C 226.535156 216.257812 216.746094 220.664062 201.183594 216.921875 C 198.765625 216.339844 196.238281 214.28125 193.699219 214.222656 C 188.265625 214.09375 178.761719 218.863281 172.082031 219.246094 C 145.941406 220.773438 127.578125 175.585938 127.660156 154.105469 C 127.773438 128.488281 145.515625 108.703125 171.996094 111.503906 C 176.105469 111.941406 182.792969 115.28125 185.039062 115.359375 C 187.796875 115.453125 199.644531 110.589844 204.242188 109.890625 C 215.421875 108.183594 230.523438 109.027344 237.898438 118.722656 C 235.582031 123.019531 231.761719 125.34375 229.117188 129.589844 C 221.027344 142.605469 220.871094 160.195312 232.035156 171.394531 C 235.941406 175.3125 243.621094 178.242188 246.480469 181.550781 Z M 237.246094 184.753906 C 212.996094 173.648438 206.480469 140.164062 226.015625 121.320312 C 219.230469 114.894531 209.09375 117.527344 201.011719 119.601562 C 196.773438 120.6875 187.414062 125.273438 184.167969 125.242188 C 181.382812 125.214844 177.425781 121.6875 174.085938 120.636719 C 163.5625 117.3125 150.921875 121.398438 144.078125 129.972656 C 127.703125 150.5 140.5 187.152344 156.976562 204.175781 C 170.023438 217.648438 176.429688 206.824219 190.179688 206.277344 C 198.246094 205.953125 203.796875 210.191406 211.066406 210.300781 C 224.007812 210.488281 229.378906 198.121094 234.796875 188.777344 C 235.675781 187.257812 237.554688 186.554688 237.238281 184.761719 Z M 237.246094 184.753906 " fill-opacity="1" fill-rule="nonzero"/></g><g fill="#130c0e" fill-opacity="1"><g transform="translate(115.115641, 265.635847)"><g><path d="M 6.40625 -1.40625 C 6.40625 -1.03125 6.265625 -0.703125 5.984375 -0.421875 C 5.703125 -0.140625 5.375 0 5 0 C 4.59375 0 4.253906 -0.140625 3.984375 -0.421875 C 3.722656 -0.703125 3.59375 -1.03125 3.59375 -1.40625 L 3.59375 -22.890625 C 3.59375 -23.265625 3.722656 -23.59375 3.984375 -23.875 C 4.253906 -24.15625 4.59375 -24.296875 5 -24.296875 C 5.40625 -24.296875 5.738281 -24.15625 6 -23.875 C 6.269531 -23.59375 6.40625 -23.265625 6.40625 -22.890625 Z M 5 -27.421875 C 4.34375 -27.421875 3.851562 -27.566406 3.53125 -27.859375 C 3.207031 -28.160156 3.046875 -28.59375 3.046875 -29.15625 L 3.046875 -29.625 C 3.046875 -30.175781 3.222656 -30.597656 3.578125 -30.890625 C 3.929688 -31.191406 4.421875 -31.34375 5.046875 -31.34375 C 5.640625 -31.34375 6.097656 -31.191406 6.421875 -30.890625 C 6.753906 -30.597656 6.921875 -30.175781 6.921875 -29.625 L 6.921875 -29.15625 C 6.921875 -28.59375 6.753906 -28.160156 6.421875 -27.859375 C 6.097656 -27.566406 5.625 -27.421875 5 -27.421875 Z M 5 -27.421875 "/></g></g></g><g fill="#130c0e" fill-opacity="1"><g transform="translate(129.787093, 265.635847)"><g><path d="M 5.796875 -32.703125 C 6.015625 -32.703125 6.238281 -32.65625 6.46875 -32.5625 C 6.707031 -32.46875 6.898438 -32.3125 7.046875 -32.09375 L 19.953125 -12.75 L 18.6875 -12.796875 L 31.625 -32.09375 C 31.96875 -32.5625 32.390625 -32.765625 32.890625 -32.703125 C 33.265625 -32.703125 33.582031 -32.566406 33.84375 -32.296875 C 34.113281 -32.035156 34.25 -31.703125 34.25 -31.296875 L 34.25 -1.40625 C 34.25 -1.03125 34.109375 -0.703125 33.828125 -0.421875 C 33.546875 -0.140625 33.203125 0 32.796875 0 C 32.359375 0 32 -0.140625 31.71875 -0.421875 C 31.4375 -0.703125 31.296875 -1.03125 31.296875 -1.40625 L 31.296875 -28.453125 L 32.140625 -28.359375 L 20.328125 -10.46875 C 20.234375 -10.28125 20.09375 -10.128906 19.90625 -10.015625 C 19.71875 -9.910156 19.5 -9.875 19.25 -9.90625 C 19.03125 -9.875 18.816406 -9.910156 18.609375 -10.015625 C 18.410156 -10.128906 18.25 -10.28125 18.125 -10.46875 L 6.265625 -28.546875 L 7.140625 -29.15625 L 7.140625 -1.40625 C 7.140625 -1.03125 7.007812 -0.703125 6.75 -0.421875 C 6.488281 -0.140625 6.15625 0 5.75 0 C 5.34375 0 5.015625 -0.140625 4.765625 -0.421875 C 4.515625 -0.703125 4.390625 -1.03125 4.390625 -1.40625 L 4.390625 -31.296875 C 4.390625 -31.671875 4.519531 -32 4.78125 -32.28125 C 5.050781 -32.5625 5.390625 -32.703125 5.796875 -32.703125 Z M 5.796875 -32.703125 "/></g></g></g><g fill="#130c0e" fill-opacity="1"><g transform="translate(173.099538, 265.635847)"><g><path d="M 25.921875 -11.953125 C 25.921875 -9.585938 25.40625 -7.460938 24.375 -5.578125 C 23.351562 -3.691406 21.953125 -2.210938 20.171875 -1.140625 C 18.398438 -0.0664062 16.378906 0.46875 14.109375 0.46875 C 11.898438 0.46875 9.898438 -0.0664062 8.109375 -1.140625 C 6.316406 -2.210938 4.898438 -3.691406 3.859375 -5.578125 C 2.816406 -7.460938 2.296875 -9.585938 2.296875 -11.953125 C 2.296875 -14.359375 2.816406 -16.492188 3.859375 -18.359375 C 4.898438 -20.222656 6.316406 -21.703125 8.109375 -22.796875 C 9.898438 -23.890625 11.898438 -24.4375 14.109375 -24.4375 C 16.378906 -24.4375 18.398438 -23.890625 20.171875 -22.796875 C 21.953125 -21.703125 23.351562 -20.222656 24.375 -18.359375 C 25.40625 -16.492188 25.921875 -14.359375 25.921875 -11.953125 Z M 23.125 -11.953125 C 23.125 -13.859375 22.734375 -15.550781 21.953125 -17.03125 C 21.179688 -18.507812 20.113281 -19.675781 18.75 -20.53125 C 17.394531 -21.382812 15.847656 -21.8125 14.109375 -21.8125 C 12.429688 -21.8125 10.90625 -21.382812 9.53125 -20.53125 C 8.15625 -19.675781 7.070312 -18.507812 6.28125 -17.03125 C 5.488281 -15.550781 5.09375 -13.859375 5.09375 -11.953125 C 5.09375 -10.054688 5.488281 -8.375 6.28125 -6.90625 C 7.070312 -5.445312 8.15625 -4.289062 9.53125 -3.4375 C 10.90625 -2.582031 12.429688 -2.15625 14.109375 -2.15625 C 15.847656 -2.15625 17.394531 -2.582031 18.75 -3.4375 C 20.113281 -4.289062 21.179688 -5.445312 21.953125 -6.90625 C 22.734375 -8.375 23.125 -10.054688 23.125 -11.953125 Z M 23.125 -11.953125 "/></g></g></g><g fill="#130c0e" fill-opacity="1"><g transform="translate(205.992825, 265.635847)"><g><path d="M 14.203125 -24.4375 C 15.691406 -24.4375 17.0625 -24.269531 18.3125 -23.9375 C 19.5625 -23.613281 20.566406 -23.171875 21.328125 -22.609375 C 22.085938 -22.046875 22.46875 -21.441406 22.46875 -20.796875 C 22.46875 -20.484375 22.359375 -20.175781 22.140625 -19.875 C 21.921875 -19.582031 21.625 -19.4375 21.25 -19.4375 C 20.882812 -19.4375 20.582031 -19.53125 20.34375 -19.71875 C 20.113281 -19.90625 19.878906 -20.125 19.640625 -20.375 C 19.410156 -20.625 19.078125 -20.851562 18.640625 -21.0625 C 18.234375 -21.25 17.65625 -21.421875 16.90625 -21.578125 C 16.164062 -21.734375 15.3125 -21.8125 14.34375 -21.8125 C 12.59375 -21.8125 11.015625 -21.375 9.609375 -20.5 C 8.210938 -19.632812 7.109375 -18.460938 6.296875 -16.984375 C 5.492188 -15.503906 5.09375 -13.84375 5.09375 -12 C 5.09375 -10.132812 5.476562 -8.453125 6.25 -6.953125 C 7.03125 -5.460938 8.109375 -4.289062 9.484375 -3.4375 C 10.859375 -2.582031 12.460938 -2.15625 14.296875 -2.15625 C 15.546875 -2.15625 16.507812 -2.257812 17.1875 -2.46875 C 17.875 -2.6875 18.46875 -2.9375 18.96875 -3.21875 C 19.5625 -3.5625 19.988281 -3.894531 20.25 -4.21875 C 20.519531 -4.550781 20.867188 -4.71875 21.296875 -4.71875 C 21.703125 -4.71875 22.003906 -4.597656 22.203125 -4.359375 C 22.410156 -4.128906 22.515625 -3.828125 22.515625 -3.453125 C 22.515625 -2.953125 22.148438 -2.398438 21.421875 -1.796875 C 20.691406 -1.191406 19.6875 -0.660156 18.40625 -0.203125 C 17.125 0.242188 15.660156 0.46875 14.015625 0.46875 C 11.679688 0.46875 9.632812 -0.0703125 7.875 -1.15625 C 6.113281 -2.25 4.742188 -3.738281 3.765625 -5.625 C 2.785156 -7.507812 2.296875 -9.632812 2.296875 -12 C 2.296875 -14.28125 2.789062 -16.351562 3.78125 -18.21875 C 4.78125 -20.09375 6.175781 -21.597656 7.96875 -22.734375 C 9.757812 -23.867188 11.835938 -24.4375 14.203125 -24.4375 Z M 14.203125 -24.4375 "/></g></g></g><g fill="#130c0e" fill-opacity="1"><g transform="translate(234.867961, 265.635847)"><g><path d="M 5.375 0 C 4.96875 0 4.628906 -0.140625 4.359375 -0.421875 C 4.097656 -0.703125 3.96875 -1.03125 3.96875 -1.40625 L 3.96875 -33.171875 C 3.96875 -33.546875 4.097656 -33.875 4.359375 -34.15625 C 4.628906 -34.4375 4.96875 -34.578125 5.375 -34.578125 C 5.78125 -34.578125 6.113281 -34.4375 6.375 -34.15625 C 6.644531 -33.875 6.78125 -33.546875 6.78125 -33.171875 L 6.78125 -1.40625 C 6.78125 -1.03125 6.644531 -0.703125 6.375 -0.421875 C 6.113281 -0.140625 5.78125 0 5.375 0 Z M 21.25 -23.96875 C 21.59375 -23.96875 21.90625 -23.816406 22.1875 -23.515625 C 22.46875 -23.222656 22.609375 -22.90625 22.609375 -22.5625 C 22.609375 -22.15625 22.4375 -21.796875 22.09375 -21.484375 L 6.40625 -8.125 L 6.265625 -11.453125 L 20.28125 -23.5 C 20.5625 -23.8125 20.882812 -23.96875 21.25 -23.96875 Z M 21.625 0 C 21.226562 0 20.890625 -0.171875 20.609375 -0.515625 L 9.953125 -11.8125 L 12.046875 -13.734375 L 22.609375 -2.46875 C 22.890625 -2.164062 23.03125 -1.8125 23.03125 -1.40625 C 23.03125 -0.96875 22.859375 -0.625 22.515625 -0.375 C 22.171875 -0.125 21.875 0 21.625 0 Z M 21.625 0 "/></g></g></g></svg>