<svg xmlns="http://www.w3.org/2000/svg" xmlns:xlink="http://www.w3.org/1999/xlink" width="500" zoomAndPan="magnify" viewBox="0 0 375 374.999991" height="500" preserveAspectRatio="xMidYMid meet" version="1.0"><defs><g/><clipPath id="ef62b47836"><path d="M 93 45.484375 L 268.191406 45.484375 L 268.191406 296 L 93 296 Z M 93 45.484375 " clip-rule="nonzero"/></clipPath></defs><g clip-path="url(#ef62b47836)"><path fill="#38b6ff" d="M 173.289062 194.75 C 165.804688 204.015625 164.414062 216.792969 169.726562 227.449219 C 164.8125 223.128906 162.304688 216.683594 163.011719 210.175781 C 163.722656 203.667969 167.550781 197.914062 173.289062 194.75 M 136.996094 246.765625 C 122.4375 226.152344 122.046875 196.824219 140.183594 175.300781 L 122.71875 157.839844 C 94.203125 189.996094 94.441406 242.226562 125.875 272.421875 C 185.203125 329.414062 250.085938 267.292969 231.566406 215.648438 C 223.410156 192.894531 193.113281 172.328125 175.925781 155.140625 C 178.882812 154.679688 181.917969 154.441406 185.007812 154.441406 C 242.140625 154.441406 265.820312 227.089844 242.398438 273.28125 C 258.308594 258.125 268.222656 236.730469 268.222656 213.023438 C 268.222656 167.066406 230.964844 129.808594 185.003906 129.808594 C 174.746094 129.808594 164.917969 131.664062 155.84375 135.0625 L 155.476562 134.695312 C 125.515625 97.527344 238.074219 127.644531 247.808594 45.597656 C 221.980469 95.953125 49.1875 54.515625 104.210938 109.546875 L 138.601562 143.9375 L 156.5 161.832031 L 173.328125 178.660156 C 159.015625 183.523438 148.71875 197.070312 148.71875 213.023438 C 148.71875 254.816406 215.996094 265.613281 206.269531 218.875 C 230.660156 260.425781 169.617188 292.949219 136.996094 246.765625 Z M 136.996094 246.765625 " fill-opacity="1" fill-rule="evenodd"/></g><g fill="#38b6ff" fill-opacity="1"><g transform="translate(264.034499, 202.399981)"><g><path d="M 2.109375 0.078125 C 1.804688 0.078125 1.566406 -0.00390625 1.390625 -0.171875 C 1.222656 -0.335938 1.140625 -0.5625 1.140625 -0.84375 C 1.140625 -1.113281 1.222656 -1.332031 1.390625 -1.5 C 1.566406 -1.675781 1.804688 -1.765625 2.109375 -1.765625 C 2.410156 -1.765625 2.644531 -1.679688 2.8125 -1.515625 C 2.988281 -1.347656 3.078125 -1.128906 3.078125 -0.859375 C 3.078125 -0.578125 2.988281 -0.347656 2.8125 -0.171875 C 2.632812 -0.00390625 2.398438 0.078125 2.109375 0.078125 Z M 2.109375 0.078125 "/></g></g></g></svg>