<svg xmlns="http://www.w3.org/2000/svg" xmlns:xlink="http://www.w3.org/1999/xlink" width="500" zoomAndPan="magnify" viewBox="0 0 375 374.999991" height="500" preserveAspectRatio="xMidYMid meet" version="1.0"><defs><g/><clipPath id="707e1afb7c"><path d="M 113 41.113281 L 250.738281 41.113281 L 250.738281 237 L 113 237 Z M 113 41.113281 " clip-rule="nonzero"/></clipPath></defs><g clip-path="url(#707e1afb7c)"><path fill="#38b6ff" d="M 176.121094 157.941406 C 170.265625 165.195312 169.175781 175.199219 173.335938 183.539062 C 169.488281 180.15625 167.527344 175.109375 168.082031 170.015625 C 168.636719 164.921875 171.632812 160.417969 176.121094 157.941406 M 147.714844 198.65625 C 136.320312 182.523438 136.015625 159.566406 150.210938 142.71875 L 136.542969 129.050781 C 114.222656 154.222656 114.40625 195.105469 139.011719 218.738281 C 185.449219 263.347656 236.238281 214.726562 221.742188 174.300781 C 215.355469 156.488281 191.640625 140.394531 178.1875 126.941406 C 180.503906 126.578125 182.878906 126.390625 185.296875 126.390625 C 230.015625 126.390625 248.550781 183.253906 230.21875 219.410156 C 242.671875 207.550781 250.429688 190.800781 250.429688 172.246094 C 250.429688 136.273438 221.265625 107.109375 185.292969 107.109375 C 177.265625 107.109375 169.570312 108.5625 162.46875 111.222656 L 162.179688 110.9375 C 138.730469 81.839844 226.835938 105.417969 234.453125 41.195312 C 214.238281 80.613281 78.984375 48.175781 122.054688 91.25 L 176.152344 145.347656 C 164.953125 149.152344 156.890625 159.757812 156.890625 172.246094 C 156.890625 204.960938 209.550781 213.410156 201.9375 176.824219 C 221.03125 209.347656 173.25 234.808594 147.714844 198.65625 Z M 147.714844 198.65625 " fill-opacity="1" fill-rule="evenodd"/></g><g fill="#38b6ff" fill-opacity="1"><g transform="translate(237.092773, 157.897622)"><g><path d="M 2.109375 0.078125 C 1.804688 0.078125 1.566406 -0.00390625 1.390625 -0.171875 C 1.222656 -0.335938 1.140625 -0.5625 1.140625 -0.84375 C 1.140625 -1.113281 1.222656 -1.332031 1.390625 -1.5 C 1.566406 -1.675781 1.804688 -1.765625 2.109375 -1.765625 C 2.410156 -1.765625 2.644531 -1.679688 2.8125 -1.515625 C 2.988281 -1.347656 3.078125 -1.128906 3.078125 -0.859375 C 3.078125 -0.578125 2.988281 -0.347656 2.8125 -0.171875 C 2.632812 -0.00390625 2.398438 0.078125 2.109375 0.078125 Z M 2.109375 0.078125 "/></g></g></g><g fill="#38b6ff" fill-opacity="1"><g transform="translate(46.84563, 293.653078)"><g><path d="M 8.796875 -33.265625 C 11.304688 -33.265625 13.15625 -32.519531 14.34375 -31.03125 C 15.539062 -29.539062 16.140625 -27.539062 16.140625 -25.03125 L 16.140625 -24.140625 L 12.65625 -24.140625 L 12.65625 -25.21875 C 12.65625 -26.726562 12.359375 -27.890625 11.765625 -28.703125 C 11.171875 -29.523438 10.210938 -29.9375 8.890625 -29.9375 C 7.578125 -29.9375 6.617188 -29.523438 6.015625 -28.703125 C 5.421875 -27.890625 5.125 -26.742188 5.125 -25.265625 C 5.125 -24.046875 5.398438 -22.976562 5.953125 -22.0625 C 6.503906 -21.15625 7.1875 -20.316406 8 -19.546875 C 8.8125 -18.785156 9.695312 -18.035156 10.65625 -17.296875 C 11.613281 -16.554688 12.5 -15.742188 13.3125 -14.859375 C 14.132812 -13.984375 14.816406 -12.988281 15.359375 -11.875 C 15.910156 -10.769531 16.1875 -9.445312 16.1875 -7.90625 C 16.1875 -5.394531 15.582031 -3.394531 14.375 -1.90625 C 13.164062 -0.414062 11.289062 0.328125 8.75 0.328125 C 6.207031 0.328125 4.335938 -0.414062 3.140625 -1.90625 C 1.953125 -3.394531 1.359375 -5.394531 1.359375 -7.90625 L 1.359375 -9.78125 L 4.796875 -9.78125 L 4.796875 -7.71875 C 4.796875 -6.207031 5.109375 -5.046875 5.734375 -4.234375 C 6.367188 -3.421875 7.34375 -3.015625 8.65625 -3.015625 C 9.976562 -3.015625 10.953125 -3.421875 11.578125 -4.234375 C 12.203125 -5.046875 12.515625 -6.207031 12.515625 -7.71875 C 12.515625 -8.9375 12.238281 -9.992188 11.6875 -10.890625 C 11.144531 -11.785156 10.460938 -12.617188 9.640625 -13.390625 C 8.828125 -14.160156 7.945312 -14.910156 7 -15.640625 C 6.0625 -16.378906 5.1875 -17.1875 4.375 -18.0625 C 3.5625 -18.945312 2.878906 -19.945312 2.328125 -21.0625 C 1.773438 -22.175781 1.5 -23.5 1.5 -25.03125 C 1.5 -27.570312 2.09375 -29.578125 3.28125 -31.046875 C 4.476562 -32.523438 6.316406 -33.265625 8.796875 -33.265625 Z M 8.796875 -33.265625 "/></g></g></g><g fill="#38b6ff" fill-opacity="1"><g transform="translate(66.706665, 293.653078)"><g><path d="M 13.59375 -18.359375 L 13.59375 -15.0625 L 5.546875 -15.0625 L 5.546875 -3.34375 L 15.4375 -3.34375 L 15.4375 0 L 1.875 0 L 1.875 -32.9375 L 15.4375 -32.9375 L 15.4375 -29.609375 L 5.546875 -29.609375 L 5.546875 -18.359375 Z M 13.59375 -18.359375 "/></g></g></g><g fill="#38b6ff" fill-opacity="1"><g transform="translate(86.002958, 293.653078)"><g><path d="M 8.796875 -33.265625 C 11.304688 -33.265625 13.15625 -32.519531 14.34375 -31.03125 C 15.539062 -29.539062 16.140625 -27.539062 16.140625 -25.03125 L 16.140625 -24.140625 L 12.65625 -24.140625 L 12.65625 -25.21875 C 12.65625 -26.726562 12.359375 -27.890625 11.765625 -28.703125 C 11.171875 -29.523438 10.210938 -29.9375 8.890625 -29.9375 C 7.578125 -29.9375 6.617188 -29.523438 6.015625 -28.703125 C 5.421875 -27.890625 5.125 -26.742188 5.125 -25.265625 C 5.125 -24.046875 5.398438 -22.976562 5.953125 -22.0625 C 6.503906 -21.15625 7.1875 -20.316406 8 -19.546875 C 8.8125 -18.785156 9.695312 -18.035156 10.65625 -17.296875 C 11.613281 -16.554688 12.5 -15.742188 13.3125 -14.859375 C 14.132812 -13.984375 14.816406 -12.988281 15.359375 -11.875 C 15.910156 -10.769531 16.1875 -9.445312 16.1875 -7.90625 C 16.1875 -5.394531 15.582031 -3.394531 14.375 -1.90625 C 13.164062 -0.414062 11.289062 0.328125 8.75 0.328125 C 6.207031 0.328125 4.335938 -0.414062 3.140625 -1.90625 C 1.953125 -3.394531 1.359375 -5.394531 1.359375 -7.90625 L 1.359375 -9.78125 L 4.796875 -9.78125 L 4.796875 -7.71875 C 4.796875 -6.207031 5.109375 -5.046875 5.734375 -4.234375 C 6.367188 -3.421875 7.34375 -3.015625 8.65625 -3.015625 C 9.976562 -3.015625 10.953125 -3.421875 11.578125 -4.234375 C 12.203125 -5.046875 12.515625 -6.207031 12.515625 -7.71875 C 12.515625 -8.9375 12.238281 -9.992188 11.6875 -10.890625 C 11.144531 -11.785156 10.460938 -12.617188 9.640625 -13.390625 C 8.828125 -14.160156 7.945312 -14.910156 7 -15.640625 C 6.0625 -16.378906 5.1875 -17.1875 4.375 -18.0625 C 3.5625 -18.945312 2.878906 -19.945312 2.328125 -21.0625 C 1.773438 -22.175781 1.5 -23.5 1.5 -25.03125 C 1.5 -27.570312 2.09375 -29.578125 3.28125 -31.046875 C 4.476562 -32.523438 6.316406 -33.265625 8.796875 -33.265625 Z M 8.796875 -33.265625 "/></g></g></g><g fill="#38b6ff" fill-opacity="1"><g transform="translate(105.863992, 293.653078)"><g><path d="M 8.796875 -33.265625 C 11.304688 -33.265625 13.15625 -32.519531 14.34375 -31.03125 C 15.539062 -29.539062 16.140625 -27.539062 16.140625 -25.03125 L 16.140625 -24.140625 L 12.65625 -24.140625 L 12.65625 -25.21875 C 12.65625 -26.726562 12.359375 -27.890625 11.765625 -28.703125 C 11.171875 -29.523438 10.210938 -29.9375 8.890625 -29.9375 C 7.578125 -29.9375 6.617188 -29.523438 6.015625 -28.703125 C 5.421875 -27.890625 5.125 -26.742188 5.125 -25.265625 C 5.125 -24.046875 5.398438 -22.976562 5.953125 -22.0625 C 6.503906 -21.15625 7.1875 -20.316406 8 -19.546875 C 8.8125 -18.785156 9.695312 -18.035156 10.65625 -17.296875 C 11.613281 -16.554688 12.5 -15.742188 13.3125 -14.859375 C 14.132812 -13.984375 14.816406 -12.988281 15.359375 -11.875 C 15.910156 -10.769531 16.1875 -9.445312 16.1875 -7.90625 C 16.1875 -5.394531 15.582031 -3.394531 14.375 -1.90625 C 13.164062 -0.414062 11.289062 0.328125 8.75 0.328125 C 6.207031 0.328125 4.335938 -0.414062 3.140625 -1.90625 C 1.953125 -3.394531 1.359375 -5.394531 1.359375 -7.90625 L 1.359375 -9.78125 L 4.796875 -9.78125 L 4.796875 -7.71875 C 4.796875 -6.207031 5.109375 -5.046875 5.734375 -4.234375 C 6.367188 -3.421875 7.34375 -3.015625 8.65625 -3.015625 C 9.976562 -3.015625 10.953125 -3.421875 11.578125 -4.234375 C 12.203125 -5.046875 12.515625 -6.207031 12.515625 -7.71875 C 12.515625 -8.9375 12.238281 -9.992188 11.6875 -10.890625 C 11.144531 -11.785156 10.460938 -12.617188 9.640625 -13.390625 C 8.828125 -14.160156 7.945312 -14.910156 7 -15.640625 C 6.0625 -16.378906 5.1875 -17.1875 4.375 -18.0625 C 3.5625 -18.945312 2.878906 -19.945312 2.328125 -21.0625 C 1.773438 -22.175781 1.5 -23.5 1.5 -25.03125 C 1.5 -27.570312 2.09375 -29.578125 3.28125 -31.046875 C 4.476562 -32.523438 6.316406 -33.265625 8.796875 -33.265625 Z M 8.796875 -33.265625 "/></g></g></g><g fill="#38b6ff" fill-opacity="1"><g transform="translate(125.725029, 293.653078)"><g><path d="M 5.546875 -32.9375 L 5.546875 0 L 1.875 0 L 1.875 -32.9375 Z M 5.546875 -32.9375 "/></g></g></g><g fill="#38b6ff" fill-opacity="1"><g transform="translate(135.514682, 293.653078)"><g><path d="M 1.59375 -24.984375 C 1.59375 -27.523438 2.210938 -29.539062 3.453125 -31.03125 C 4.691406 -32.519531 6.582031 -33.265625 9.125 -33.265625 C 11.664062 -33.265625 13.5625 -32.519531 14.8125 -31.03125 C 16.070312 -29.539062 16.703125 -27.523438 16.703125 -24.984375 L 16.703125 -7.953125 C 16.703125 -5.441406 16.070312 -3.429688 14.8125 -1.921875 C 13.5625 -0.421875 11.664062 0.328125 9.125 0.328125 C 6.582031 0.328125 4.691406 -0.421875 3.453125 -1.921875 C 2.210938 -3.429688 1.59375 -5.441406 1.59375 -7.953125 Z M 5.21875 -7.765625 C 5.21875 -6.253906 5.539062 -5.082031 6.1875 -4.25 C 6.832031 -3.425781 7.8125 -3.015625 9.125 -3.015625 C 10.476562 -3.015625 11.46875 -3.425781 12.09375 -4.25 C 12.71875 -5.082031 13.03125 -6.253906 13.03125 -7.765625 L 13.03125 -25.171875 C 13.03125 -26.679688 12.71875 -27.851562 12.09375 -28.6875 C 11.46875 -29.519531 10.476562 -29.9375 9.125 -29.9375 C 7.8125 -29.9375 6.832031 -29.519531 6.1875 -28.6875 C 5.539062 -27.851562 5.21875 -26.679688 5.21875 -25.171875 Z M 5.21875 -7.765625 "/></g></g></g><g fill="#38b6ff" fill-opacity="1"><g transform="translate(156.175781, 293.653078)"><g><path d="M 5.125 0 L 1.828125 0 L 1.828125 -32.9375 L 6.5 -32.9375 L 14.125 -9.125 L 14.125 -32.9375 L 17.359375 -32.9375 L 17.359375 0 L 13.546875 0 L 5.125 -26.640625 Z M 5.125 0 "/></g></g></g><g fill="#38b6ff" fill-opacity="1"><g transform="translate(177.778139, 293.653078)"><g/></g></g><g fill="#38b6ff" fill-opacity="1"><g transform="translate(187.426606, 293.653078)"><g><path d="M 8.984375 -33.265625 C 11.523438 -33.265625 13.398438 -32.507812 14.609375 -31 C 15.816406 -29.5 16.421875 -27.492188 16.421875 -24.984375 L 16.421875 -22.03125 L 12.9375 -22.03125 L 12.9375 -25.171875 C 12.9375 -26.679688 12.628906 -27.851562 12.015625 -28.6875 C 11.410156 -29.519531 10.429688 -29.9375 9.078125 -29.9375 C 7.765625 -29.9375 6.789062 -29.519531 6.15625 -28.6875 C 5.53125 -27.851562 5.21875 -26.679688 5.21875 -25.171875 L 5.21875 -7.765625 C 5.21875 -6.253906 5.53125 -5.082031 6.15625 -4.25 C 6.789062 -3.425781 7.765625 -3.015625 9.078125 -3.015625 C 10.429688 -3.015625 11.410156 -3.425781 12.015625 -4.25 C 12.628906 -5.082031 12.9375 -6.253906 12.9375 -7.765625 L 12.9375 -12.046875 L 16.421875 -12.046875 L 16.421875 -7.953125 C 16.421875 -5.441406 15.816406 -3.429688 14.609375 -1.921875 C 13.398438 -0.421875 11.523438 0.328125 8.984375 0.328125 C 6.472656 0.328125 4.613281 -0.421875 3.40625 -1.921875 C 2.195312 -3.429688 1.59375 -5.441406 1.59375 -7.953125 L 1.59375 -24.984375 C 1.59375 -26.242188 1.742188 -27.382812 2.046875 -28.40625 C 2.347656 -29.425781 2.800781 -30.296875 3.40625 -31.015625 C 4.019531 -31.734375 4.789062 -32.285156 5.71875 -32.671875 C 6.644531 -33.066406 7.734375 -33.265625 8.984375 -33.265625 Z M 8.984375 -33.265625 "/></g></g></g><g fill="#38b6ff" fill-opacity="1"><g transform="translate(207.664142, 293.653078)"><g><path d="M 1.59375 -24.984375 C 1.59375 -27.523438 2.210938 -29.539062 3.453125 -31.03125 C 4.691406 -32.519531 6.582031 -33.265625 9.125 -33.265625 C 11.664062 -33.265625 13.5625 -32.519531 14.8125 -31.03125 C 16.070312 -29.539062 16.703125 -27.523438 16.703125 -24.984375 L 16.703125 -7.953125 C 16.703125 -5.441406 16.070312 -3.429688 14.8125 -1.921875 C 13.5625 -0.421875 11.664062 0.328125 9.125 0.328125 C 6.582031 0.328125 4.691406 -0.421875 3.453125 -1.921875 C 2.210938 -3.429688 1.59375 -5.441406 1.59375 -7.953125 Z M 5.21875 -7.765625 C 5.21875 -6.253906 5.539062 -5.082031 6.1875 -4.25 C 6.832031 -3.425781 7.8125 -3.015625 9.125 -3.015625 C 10.476562 -3.015625 11.46875 -3.425781 12.09375 -4.25 C 12.71875 -5.082031 13.03125 -6.253906 13.03125 -7.765625 L 13.03125 -25.171875 C 13.03125 -26.679688 12.71875 -27.851562 12.09375 -28.6875 C 11.46875 -29.519531 10.476562 -29.9375 9.125 -29.9375 C 7.8125 -29.9375 6.832031 -29.519531 6.1875 -28.6875 C 5.539062 -27.851562 5.21875 -26.679688 5.21875 -25.171875 Z M 5.21875 -7.765625 "/></g></g></g><g fill="#38b6ff" fill-opacity="1"><g transform="translate(228.325247, 293.653078)"><g><path d="M 5.125 0 L 1.828125 0 L 1.828125 -32.9375 L 6.5 -32.9375 L 14.125 -9.125 L 14.125 -32.9375 L 17.359375 -32.9375 L 17.359375 0 L 13.546875 0 L 5.125 -26.640625 Z M 5.125 0 "/></g></g></g><g fill="#38b6ff" fill-opacity="1"><g transform="translate(249.927593, 293.653078)"><g><path d="M 5.125 0 L 1.828125 0 L 1.828125 -32.9375 L 6.5 -32.9375 L 14.125 -9.125 L 14.125 -32.9375 L 17.359375 -32.9375 L 17.359375 0 L 13.546875 0 L 5.125 -26.640625 Z M 5.125 0 "/></g></g></g><g fill="#38b6ff" fill-opacity="1"><g transform="translate(271.52994, 293.653078)"><g><path d="M 13.59375 -18.359375 L 13.59375 -15.0625 L 5.546875 -15.0625 L 5.546875 -3.34375 L 15.4375 -3.34375 L 15.4375 0 L 1.875 0 L 1.875 -32.9375 L 15.4375 -32.9375 L 15.4375 -29.609375 L 5.546875 -29.609375 L 5.546875 -18.359375 Z M 13.59375 -18.359375 "/></g></g></g><g fill="#38b6ff" fill-opacity="1"><g transform="translate(290.826234, 293.653078)"><g><path d="M 8.984375 -33.265625 C 11.523438 -33.265625 13.398438 -32.507812 14.609375 -31 C 15.816406 -29.5 16.421875 -27.492188 16.421875 -24.984375 L 16.421875 -22.03125 L 12.9375 -22.03125 L 12.9375 -25.171875 C 12.9375 -26.679688 12.628906 -27.851562 12.015625 -28.6875 C 11.410156 -29.519531 10.429688 -29.9375 9.078125 -29.9375 C 7.765625 -29.9375 6.789062 -29.519531 6.15625 -28.6875 C 5.53125 -27.851562 5.21875 -26.679688 5.21875 -25.171875 L 5.21875 -7.765625 C 5.21875 -6.253906 5.53125 -5.082031 6.15625 -4.25 C 6.789062 -3.425781 7.765625 -3.015625 9.078125 -3.015625 C 10.429688 -3.015625 11.410156 -3.425781 12.015625 -4.25 C 12.628906 -5.082031 12.9375 -6.253906 12.9375 -7.765625 L 12.9375 -12.046875 L 16.421875 -12.046875 L 16.421875 -7.953125 C 16.421875 -5.441406 15.816406 -3.429688 14.609375 -1.921875 C 13.398438 -0.421875 11.523438 0.328125 8.984375 0.328125 C 6.472656 0.328125 4.613281 -0.421875 3.40625 -1.921875 C 2.195312 -3.429688 1.59375 -5.441406 1.59375 -7.953125 L 1.59375 -24.984375 C 1.59375 -26.242188 1.742188 -27.382812 2.046875 -28.40625 C 2.347656 -29.425781 2.800781 -30.296875 3.40625 -31.015625 C 4.019531 -31.734375 4.789062 -32.285156 5.71875 -32.671875 C 6.644531 -33.066406 7.734375 -33.265625 8.984375 -33.265625 Z M 8.984375 -33.265625 "/></g></g></g><g fill="#38b6ff" fill-opacity="1"><g transform="translate(311.063759, 293.653078)"><g><path d="M 6.6875 0 L 6.6875 -29.609375 L 0.609375 -29.609375 L 0.609375 -32.9375 L 16.421875 -32.9375 L 16.421875 -29.609375 L 10.359375 -29.609375 L 10.359375 0 Z M 6.6875 0 "/></g></g></g></svg>