<svg xmlns="http://www.w3.org/2000/svg" xmlns:xlink="http://www.w3.org/1999/xlink" width="500" zoomAndPan="magnify" viewBox="0 0 375 374.999991" height="500" preserveAspectRatio="xMidYMid meet" version="1.0"><defs><g/><clipPath id="f497be34bd"><path d="M 168 267 L 207 267 L 207 269.164062 L 168 269.164062 Z M 168 267 " clip-rule="nonzero"/></clipPath><clipPath id="dd57a16ae6"><path d="M 85.921875 171 L 289 171 L 289 175 L 85.921875 175 Z M 85.921875 171 " clip-rule="nonzero"/></clipPath><clipPath id="7f8593535b"><path d="M 85.921875 161 L 289.171875 161 L 289.171875 166 L 85.921875 166 Z M 85.921875 161 " clip-rule="nonzero"/></clipPath><clipPath id="19f25d37a1"><path d="M 154 65.914062 L 221 65.914062 L 221 72 L 154 72 Z M 154 65.914062 " clip-rule="nonzero"/></clipPath><clipPath id="547c441a1f"><path d="M 78.765625 241 L 296.265625 241 L 296.265625 274.855469 L 78.765625 274.855469 Z M 78.765625 241 " clip-rule="nonzero"/></clipPath><clipPath id="b7ac37ebb1"><path d="M 78.765625 100.105469 L 296.265625 100.105469 L 296.265625 203 L 78.765625 203 Z M 78.765625 100.105469 " clip-rule="nonzero"/></clipPath></defs><rect x="-37.5" width="450" fill="#ffffff" y="-37.499999" height="449.999989" fill-opacity="1"/><rect x="-37.5" width="450" fill="#ffffff" y="-37.499999" height="449.999989" fill-opacity="1"/><g clip-path="url(#f497be34bd)"><path fill="#cb6ce6" d="M 168.414062 267.273438 L 206.574219 267.273438 C 200.394531 268.449219 194.015625 269.0625 187.496094 269.0625 C 180.972656 269.0625 174.59375 268.449219 168.414062 267.273438 Z M 168.414062 267.273438 " fill-opacity="1" fill-rule="nonzero"/></g><path fill="#cb6ce6" d="M 140.738281 257.683594 L 234.25 257.683594 C 232.9375 258.367188 231.609375 259.019531 230.265625 259.644531 L 144.726562 259.644531 C 143.378906 259.019531 142.050781 258.367188 140.738281 257.683594 Z M 140.738281 257.683594 " fill-opacity="1" fill-rule="nonzero"/><path fill="#cb6ce6" d="M 125.683594 248.097656 L 249.308594 248.097656 C 248.359375 248.824219 247.402344 249.535156 246.429688 250.226562 L 128.558594 250.226562 C 127.589844 249.535156 126.628906 248.824219 125.683594 248.097656 Z M 125.683594 248.097656 " fill-opacity="1" fill-rule="nonzero"/><path fill="#cb6ce6" d="M 114.875 238.507812 L 260.113281 238.507812 C 259.351562 239.289062 258.574219 240.054688 257.789062 240.808594 L 117.199219 240.808594 C 116.414062 240.054688 115.636719 239.289062 114.875 238.507812 Z M 114.875 238.507812 " fill-opacity="1" fill-rule="nonzero"/><path fill="#cb6ce6" d="M 106.597656 228.921875 L 268.390625 228.921875 C 267.757812 229.753906 267.113281 230.578125 266.453125 231.390625 L 108.535156 231.390625 C 107.875 230.578125 107.230469 229.753906 106.597656 228.921875 Z M 106.597656 228.921875 " fill-opacity="1" fill-rule="nonzero"/><path fill="#cb6ce6" d="M 100.128906 219.332031 L 274.859375 219.332031 C 274.332031 220.222656 273.789062 221.101562 273.234375 221.972656 L 101.753906 221.972656 C 101.199219 221.101562 100.65625 220.222656 100.128906 219.332031 Z M 100.128906 219.332031 " fill-opacity="1" fill-rule="nonzero"/><path fill="#cb6ce6" d="M 95.101562 209.742188 L 279.886719 209.742188 C 279.457031 210.6875 279.007812 211.628906 278.546875 212.554688 L 96.441406 212.554688 C 95.980469 211.625 95.535156 210.6875 95.101562 209.742188 Z M 95.101562 209.742188 " fill-opacity="1" fill-rule="nonzero"/><path fill="#cb6ce6" d="M 91.289062 200.15625 L 283.699219 200.15625 C 283.359375 201.15625 283.003906 202.152344 282.636719 203.136719 L 92.355469 203.136719 C 91.984375 202.152344 91.628906 201.15625 91.289062 200.15625 Z M 91.289062 200.15625 " fill-opacity="1" fill-rule="nonzero"/><path fill="#cb6ce6" d="M 88.554688 190.566406 L 286.433594 190.566406 C 286.1875 191.625 285.925781 192.675781 285.648438 193.71875 L 89.339844 193.71875 C 89.0625 192.675781 88.800781 191.625 88.554688 190.566406 Z M 88.554688 190.566406 " fill-opacity="1" fill-rule="nonzero"/><path fill="#cb6ce6" d="M 86.808594 180.976562 L 288.179688 180.976562 C 288.03125 182.09375 287.867188 183.199219 287.683594 184.300781 L 87.304688 184.300781 C 87.125 183.199219 86.957031 182.09375 86.808594 180.976562 Z M 86.808594 180.976562 " fill-opacity="1" fill-rule="nonzero"/><g clip-path="url(#dd57a16ae6)"><path fill="#cb6ce6" d="M 85.996094 171.390625 L 288.992188 171.390625 C 288.949219 172.558594 288.886719 173.722656 288.800781 174.882812 L 86.1875 174.882812 C 86.105469 173.722656 86.039062 172.558594 85.996094 171.390625 Z M 85.996094 171.390625 " fill-opacity="1" fill-rule="nonzero"/></g><g clip-path="url(#7f8593535b)"><path fill="#cb6ce6" d="M 85.941406 165.464844 C 85.964844 164.238281 86.011719 163.015625 86.078125 161.800781 L 288.910156 161.800781 C 288.976562 163.015625 289.023438 164.238281 289.046875 165.464844 Z M 85.941406 165.464844 " fill-opacity="1" fill-rule="nonzero"/></g><path fill="#cb6ce6" d="M 86.558594 156.046875 C 86.703125 154.761719 86.871094 153.484375 87.0625 152.214844 L 287.925781 152.214844 C 288.117188 153.484375 288.285156 154.761719 288.429688 156.046875 Z M 86.558594 156.046875 " fill-opacity="1" fill-rule="nonzero"/><path fill="#cb6ce6" d="M 88.066406 146.628906 C 88.347656 145.285156 88.652344 143.949219 88.988281 142.625 L 286 142.625 C 286.335938 143.949219 286.640625 145.285156 286.921875 146.628906 Z M 88.066406 146.628906 " fill-opacity="1" fill-rule="nonzero"/><path fill="#cb6ce6" d="M 90.511719 137.210938 C 90.949219 135.808594 91.417969 134.414062 91.914062 133.035156 L 283.074219 133.035156 C 283.570312 134.414062 284.039062 135.804688 284.476562 137.210938 Z M 90.511719 137.210938 " fill-opacity="1" fill-rule="nonzero"/><path fill="#cb6ce6" d="M 93.972656 127.792969 C 94.59375 126.328125 95.25 124.878906 95.941406 123.449219 L 279.046875 123.449219 C 279.738281 124.878906 280.394531 126.328125 281.015625 127.792969 Z M 93.972656 127.792969 " fill-opacity="1" fill-rule="nonzero"/><path fill="#cb6ce6" d="M 98.566406 118.375 C 99.410156 116.84375 100.296875 115.339844 101.21875 113.859375 L 273.769531 113.859375 C 274.695312 115.339844 275.578125 116.84375 276.425781 118.375 Z M 98.566406 118.375 " fill-opacity="1" fill-rule="nonzero"/><path fill="#cb6ce6" d="M 104.472656 108.957031 C 105.601562 107.359375 106.773438 105.796875 107.988281 104.269531 L 267 104.269531 C 268.214844 105.796875 269.386719 107.359375 270.515625 108.957031 Z M 104.472656 108.957031 " fill-opacity="1" fill-rule="nonzero"/><path fill="#cb6ce6" d="M 111.996094 99.539062 C 113.5 97.871094 115.058594 96.25 116.667969 94.683594 L 258.320312 94.683594 C 259.929688 96.25 261.488281 97.871094 262.992188 99.539062 Z M 111.996094 99.539062 " fill-opacity="1" fill-rule="nonzero"/><path fill="#cb6ce6" d="M 121.679688 90.121094 C 123.746094 88.363281 125.882812 86.683594 128.085938 85.09375 L 246.902344 85.09375 C 249.105469 86.683594 251.242188 88.363281 253.308594 90.121094 Z M 121.679688 90.121094 " fill-opacity="1" fill-rule="nonzero"/><path fill="#cb6ce6" d="M 134.695312 80.703125 C 137.808594 78.804688 141.035156 77.066406 144.359375 75.507812 L 230.628906 75.507812 C 233.953125 77.066406 237.179688 78.804688 240.296875 80.703125 Z M 134.695312 80.703125 " fill-opacity="1" fill-rule="nonzero"/><g clip-path="url(#19f25d37a1)"><path fill="#cb6ce6" d="M 154.824219 71.285156 C 165.078125 67.804688 176.066406 65.917969 187.496094 65.917969 C 198.925781 65.917969 209.910156 67.804688 220.164062 71.285156 Z M 154.824219 71.285156 " fill-opacity="1" fill-rule="nonzero"/></g><g clip-path="url(#547c441a1f)"><path fill="#5e17eb" d="M 247.394531 245.589844 C 263.636719 245.234375 279.878906 244.746094 296.117188 243.835938 C 278.027344 242.832031 259.902344 242.34375 241.808594 241.984375 C 223.714844 241.597656 205.589844 241.464844 187.5 241.464844 C 169.40625 241.464844 151.28125 241.628906 133.1875 241.984375 C 115.097656 242.34375 96.972656 242.863281 78.878906 243.835938 C 96.972656 244.8125 115.097656 245.332031 133.1875 245.6875 C 133.742188 245.6875 134.292969 245.722656 134.84375 245.722656 L 123.867188 265.179688 L 123.640625 267.777344 C 125.847656 268.554688 128.835938 269.109375 132.605469 269.433594 C 136.371094 269.757812 140.5625 269.921875 145.109375 269.921875 L 200.363281 269.921875 C 215.464844 269.921875 226.378906 270.472656 233.070312 271.578125 C 239.761719 272.683594 243.660156 273.785156 244.765625 274.890625 L 247.363281 274.402344 C 247.6875 273.785156 247.914062 273.136719 248.078125 272.519531 C 248.238281 271.902344 248.304688 271.089844 248.304688 270.148438 C 248.304688 268.589844 247.949219 266.769531 247.234375 264.722656 C 246.519531 262.675781 245.609375 261.019531 244.503906 259.753906 C 245.445312 256.601562 246.195312 253.484375 246.746094 250.429688 C 247.039062 248.808594 247.265625 247.214844 247.394531 245.589844 Z M 199.191406 254.296875 L 164.730469 254.296875 L 169.339844 246.144531 C 175.382812 246.175781 181.457031 246.207031 187.5 246.207031 C 200.75 246.207031 214.003906 246.144531 227.257812 245.949219 C 224.753906 247.929688 221.800781 249.652344 218.324219 251.113281 C 213.289062 253.257812 206.890625 254.296875 199.191406 254.296875 Z M 199.191406 254.296875 " fill-opacity="1" fill-rule="nonzero"/></g><g clip-path="url(#b7ac37ebb1)"><path fill="#5e17eb" d="M 196.496094 198.167969 L 246.648438 109.589844 L 246.875 106.992188 C 244.667969 106.210938 241.417969 105.660156 237.066406 105.335938 C 232.746094 105.011719 228.359375 104.847656 223.976562 104.847656 L 173.695312 104.847656 C 165.671875 104.847656 159.042969 104.71875 153.847656 104.492188 C 148.652344 104.261719 144.492188 103.90625 141.34375 103.417969 C 138.191406 102.929688 135.917969 102.445312 134.488281 101.890625 C 133.058594 101.339844 132.117188 100.753906 131.664062 100.105469 L 128.609375 100.820312 C 127.992188 102.25 127.667969 104.132812 127.667969 106.472656 C 127.667969 107.902344 127.992188 109.460938 128.609375 111.183594 C 129.226562 112.902344 130.332031 114.105469 131.921875 114.722656 C 130.492188 119.300781 129.8125 123.847656 129.8125 128.429688 C 129.8125 132.847656 130.492188 137.167969 131.824219 141.421875 C 133.15625 145.675781 135.332031 149.835938 138.320312 153.929688 L 140.917969 152.984375 C 141.082031 149.21875 141.535156 145.386719 142.347656 141.519531 C 143.128906 137.65625 144.71875 134.144531 147.058594 131.027344 C 149.429688 127.878906 152.808594 125.3125 157.226562 123.363281 C 161.644531 121.382812 167.523438 120.40625 174.929688 120.40625 L 205.625 120.40625 L 161.644531 198.265625 C 152.160156 198.363281 142.671875 198.492188 133.1875 198.6875 C 115.097656 199.046875 96.972656 199.566406 78.878906 200.539062 C 96.972656 201.515625 115.097656 202.035156 133.1875 202.390625 C 151.28125 202.78125 169.40625 202.910156 187.5 202.910156 C 205.589844 202.910156 223.714844 202.78125 241.808594 202.390625 C 259.902344 202.035156 278.027344 201.515625 296.117188 200.539062 C 278.027344 199.53125 259.902344 199.046875 241.808594 198.6875 C 226.703125 198.363281 211.601562 198.199219 196.496094 198.167969 Z M 196.496094 198.167969 " fill-opacity="1" fill-rule="nonzero"/></g><path stroke-linecap="butt" transform="matrix(0.75, 0, 0, 0.75, 45.283614, 186.249948)" fill="none" stroke-linejoin="miter" d="M 92.835395 61.640699 L 92.835395 68.000074 L 62.611435 68.000074 L 62.611435 61.640699 L 83.798936 31.375072 L 62.991643 31.375072 L 62.991643 25.015696 L 92.392687 25.015696 L 92.392687 31.375072 L 71.220811 61.640699 Z M 134.01769 61.703199 L 134.382273 67.619866 C 130.601023 67.953199 124.288522 68.119866 115.444772 68.119866 C 112.616647 68.119866 110.382271 67.395907 108.736438 65.947991 C 107.10623 64.484449 106.267688 62.494865 106.226021 59.968824 L 106.226021 33.046947 C 106.267688 30.510488 107.10623 28.520905 108.736438 27.06778 C 110.382271 25.619863 112.616647 24.895905 115.444772 24.895905 C 124.288522 24.895905 130.601023 25.057363 134.382273 25.38028 L 134.01769 31.375072 L 117.194772 31.375072 C 116.069772 31.375072 115.267688 31.640697 114.788522 32.182363 C 114.314563 32.718822 114.07498 33.651114 114.07498 34.979239 L 114.07498 42.520906 L 131.70519 42.520906 L 131.70519 48.500073 L 114.07498 48.500073 L 114.07498 58.099032 C 114.07498 59.427157 114.314563 60.359449 114.788522 60.895907 C 115.267688 61.432365 116.069772 61.703199 117.194772 61.703199 Z M 183.158318 25.015696 L 183.158318 65.140699 C 183.158318 67.046949 182.205193 68.000074 180.298943 68.000074 L 174.127067 68.000074 C 172.632276 68.000074 171.55415 67.208407 170.887484 65.625074 L 158.809358 39.281322 C 157.351025 36.171947 156.496858 34.031322 156.252066 32.864655 L 155.507274 32.864655 C 155.752066 34.609447 155.871858 36.770905 155.871858 39.343822 L 155.871858 68.000074 L 148.205191 68.000074 L 148.205191 27.875071 C 148.205191 25.968821 149.184357 25.015696 151.142691 25.015696 L 157.17915 25.015696 C 158.012483 25.015696 158.668733 25.203196 159.142691 25.578196 C 159.621858 25.94278 160.043733 26.541738 160.418733 27.375071 L 172.132276 52.989656 C 172.262484 53.281323 172.699984 54.26049 173.439567 55.921948 C 174.189567 57.578198 174.752067 58.859449 175.127067 59.770907 L 175.871859 59.770907 C 175.673942 57.156323 175.569776 54.833407 175.569776 52.807365 L 175.569776 25.015696 Z M 229.767696 31.677155 L 216.486445 31.677155 L 216.486445 68.000074 L 208.637486 68.000074 L 208.637486 31.677155 L 195.49686 31.677155 L 195.49686 25.015696 L 229.767696 25.015696 Z M 274.241657 68.000074 L 265.955198 68.000074 L 262.533323 54.661532 C 261.741656 52.093823 260.080198 50.812573 257.543739 50.812573 L 249.814572 50.734448 L 249.814572 68.000074 L 242.090613 68.000074 L 242.090613 25.015696 C 245.793739 24.640696 251.002072 24.453196 257.726031 24.453196 C 263.16874 24.453196 267.022907 25.354238 269.283324 27.16153 C 271.559365 28.963613 272.694782 32.25528 272.694782 37.031322 C 272.694782 40.359447 272.069782 42.901114 270.819782 44.666739 C 269.57499 46.432364 267.517698 47.500073 264.647907 47.875073 L 264.647907 48.182364 C 265.892698 48.474031 267.054157 49.145906 268.132282 50.187573 C 269.215615 51.224031 269.965615 52.671948 270.382282 54.54174 Z M 249.814572 44.395906 L 257.543739 44.395906 C 260.330198 44.354239 262.23124 43.854239 263.246865 42.901114 C 264.26249 41.942781 264.767698 40.151114 264.767698 37.53653 C 264.767698 34.916739 264.26249 33.156322 263.246865 32.239655 C 262.23124 31.328197 260.330198 30.875072 257.543739 30.875072 L 249.814572 30.875072 Z M 304.949993 53.489656 L 304.949993 68.000074 L 297.163534 68.000074 L 297.163534 53.35424 L 283.017699 25.015696 L 291.246867 25.015696 L 299.095826 41.703197 C 299.387492 42.369864 299.970826 44.093823 300.845826 46.875073 L 301.345826 46.875073 C 302.220826 44.093823 302.798951 42.369864 303.080201 41.703197 L 310.92916 25.015696 L 319.033327 25.015696 Z M 304.949993 53.489656 " stroke="#80004e" stroke-width="1.557603" stroke-opacity="1" stroke-miterlimit="4"/><g fill="#ff66c4" fill-opacity="1"><g transform="translate(90.142986, 237.249944)"><g><path d="M 24.765625 -4.765625 L 24.765625 0 L 2.109375 0 L 2.109375 -4.765625 L 17.984375 -27.46875 L 2.375 -27.46875 L 2.375 -32.234375 L 24.4375 -32.234375 L 24.4375 -27.46875 L 8.546875 -4.765625 Z M 24.765625 -4.765625 "/></g></g></g><g fill="#ff66c4" fill-opacity="1"><g transform="translate(121.634599, 237.249944)"><g><path d="M 24.15625 -4.71875 L 24.4375 -0.28125 C 21.601562 -0.03125 16.867188 0.09375 10.234375 0.09375 C 8.109375 0.09375 6.429688 -0.445312 5.203125 -1.53125 C 3.972656 -2.625 3.34375 -4.125 3.3125 -6.03125 L 3.3125 -26.203125 C 3.34375 -28.109375 3.972656 -29.601562 5.203125 -30.6875 C 6.429688 -31.78125 8.109375 -32.328125 10.234375 -32.328125 C 16.867188 -32.328125 21.601562 -32.203125 24.4375 -31.953125 L 24.15625 -27.46875 L 11.546875 -27.46875 C 10.703125 -27.46875 10.097656 -27.265625 9.734375 -26.859375 C 9.378906 -26.453125 9.203125 -25.753906 9.203125 -24.765625 L 9.203125 -19.109375 L 22.421875 -19.109375 L 22.421875 -14.625 L 9.203125 -14.625 L 9.203125 -7.421875 C 9.203125 -6.429688 9.378906 -5.734375 9.734375 -5.328125 C 10.097656 -4.921875 10.703125 -4.71875 11.546875 -4.71875 Z M 24.15625 -4.71875 "/></g></g></g><g fill="#ff66c4" fill-opacity="1"><g transform="translate(152.845877, 237.249944)"><g><path d="M 29.8125 -32.234375 L 29.8125 -2.15625 C 29.8125 -0.71875 29.09375 0 27.65625 0 L 23.03125 0 C 21.90625 0 21.097656 -0.59375 20.609375 -1.78125 L 11.546875 -21.53125 C 10.453125 -23.875 9.8125 -25.476562 9.625 -26.34375 L 9.0625 -26.34375 C 9.25 -25.039062 9.34375 -23.421875 9.34375 -21.484375 L 9.34375 0 L 3.59375 0 L 3.59375 -30.09375 C 3.59375 -31.519531 4.328125 -32.234375 5.796875 -32.234375 L 10.328125 -32.234375 C 10.953125 -32.234375 11.441406 -32.09375 11.796875 -31.8125 C 12.148438 -31.53125 12.46875 -31.078125 12.75 -30.453125 L 21.53125 -11.265625 C 21.625 -11.046875 21.953125 -10.3125 22.515625 -9.0625 C 23.078125 -7.8125 23.5 -6.847656 23.78125 -6.171875 L 24.34375 -6.171875 C 24.1875 -8.128906 24.109375 -9.875 24.109375 -11.40625 L 24.109375 -32.234375 Z M 29.8125 -32.234375 "/></g></g></g><g fill="#ff66c4" fill-opacity="1"><g transform="translate(190.925386, 237.249944)"><g><path d="M 26.671875 -27.234375 L 16.71875 -27.234375 L 16.71875 0 L 10.84375 0 L 10.84375 -27.234375 L 0.984375 -27.234375 L 0.984375 -32.234375 L 26.671875 -32.234375 Z M 26.671875 -27.234375 "/></g></g></g><g fill="#ff66c4" fill-opacity="1"><g transform="translate(223.257998, 237.249944)"><g><path d="M 27.703125 0 L 21.484375 0 L 18.921875 -10 C 18.328125 -11.925781 17.082031 -12.890625 15.1875 -12.890625 L 9.390625 -12.9375 L 9.390625 0 L 3.59375 0 L 3.59375 -32.234375 C 6.363281 -32.515625 10.273438 -32.65625 15.328125 -32.65625 C 19.398438 -32.65625 22.285156 -31.976562 23.984375 -30.625 C 25.679688 -29.269531 26.53125 -26.800781 26.53125 -23.21875 C 26.53125 -20.726562 26.0625 -18.820312 25.125 -17.5 C 24.195312 -16.175781 22.660156 -15.375 20.515625 -15.09375 L 20.515625 -14.859375 C 21.441406 -14.640625 22.3125 -14.140625 23.125 -13.359375 C 23.9375 -12.578125 24.5 -11.488281 24.8125 -10.09375 Z M 9.390625 -17.703125 L 15.1875 -17.703125 C 17.269531 -17.734375 18.691406 -18.109375 19.453125 -18.828125 C 20.222656 -19.546875 20.609375 -20.882812 20.609375 -22.84375 C 20.609375 -24.800781 20.222656 -26.125 19.453125 -26.8125 C 18.691406 -27.5 17.269531 -27.84375 15.1875 -27.84375 L 9.390625 -27.84375 Z M 9.390625 -17.703125 "/></g></g></g><g fill="#ff66c4" fill-opacity="1"><g transform="translate(257.319344, 237.249944)"><g><path d="M 16.671875 -10.890625 L 16.671875 0 L 10.84375 0 L 10.84375 -10.984375 L 0.234375 -32.234375 L 6.40625 -32.234375 L 12.28125 -19.71875 C 12.5 -19.21875 12.9375 -17.925781 13.59375 -15.84375 L 13.96875 -15.84375 C 14.625 -17.925781 15.0625 -19.21875 15.28125 -19.71875 L 21.15625 -32.234375 L 27.234375 -32.234375 Z M 16.671875 -10.890625 "/></g></g></g></svg>